<svg xmlns="http://www.w3.org/2000/svg" style="shape-rendering:geometricPrecision;text-rendering:geometricPrecision;image-rendering:optimizeQuality;fill-rule:evenodd;clip-rule:evenodd" viewBox="0 0 720 749"><path fill="#f6f2de" d="M346.5-.5h4a229 229 0 0 1-13.5 61 808.1 808.1 0 0 1-25 42l-7 18a60.2 60.2 0 0 0-2.5 13c.3 1.5 0 2.8-1 4a262.3 262.3 0 0 0-44-33c-10-9.9-19.6-20.2-28.5-31a389.4 389.4 0 0 1-25.5-45c2.8.6 5.3 2 7.5 4a194.2 194.2 0 0 0 85.5 92 213 213 0 0 1 27.5-51 196.7 196.7 0 0 0 19-63c1-3.7 2.2-7.4 3.5-11Z" style="opacity:.222"/><path fill="#efdfc3" d="M201.5 28.5a271.4 271.4 0 0 1 9.5 92 1377 1377 0 0 0-7 49c-5.2-2.3-10.3-4.3-15.5-6 2 0 3-1 3-3 2.3.2 4.5.8 6.5 2l2-2a359 359 0 0 1 6-36c.7-13.7.7-27.3 0-41-1.2-10-2.5-20-4-30l-5.5-21a5.5 5.5 0 0 1 5-4Z" style="opacity:.275"/><path fill="#948e70" d="M350.5-.5h4a196 196 0 0 0 20.5 82 502 502 0 0 1 26 45c1.3 4.3 2.5 8.6 3.5 13 15-13.8 31.3-25.6 49-35.5A142.9 142.9 0 0 0 505 46.5c2.4-4 5.2-7.7 8.5-11l1 1.5A629.3 629.3 0 0 0 497 86.5a239 239 0 0 0 1 74c.5 7.3.7 14.7.5 22a7 7 0 0 0 4-1c.7 0 1 .3 1 1a19 19 0 0 1-5.5 3 92.7 92.7 0 0 1-22.5 44c0-1.3-.7-2-2-2 5.4-10.1 8-20.8 8-32a268 268 0 0 0-42.5 29c-2.2 3.4-3 7-2 11l8.5 6.5c3 .3 6 .1 9-.5a46.7 46.7 0 0 1-8 3c-10.4-7.4-21.7-13-34-17-1.2-1.7-.5-2.4 2-2 2.6-.5 5-1.6 7-3.5 1.5-2.5 3.3-4.6 5.5-6.5l1-45c1.1-3.3 2-6.6 2.5-10 4-8 9.2-15.3 15.5-22l26-24c.7 1.1 1.6 1.1 2.5 0a103 103 0 0 0 22.5-34c2.9-9.9 6.2-19.5 10-29a4 4 0 0 0 0-4c-9.5 14-17.2 29-23 45-2.2 5-4.8 9.7-8 14a523.8 523.8 0 0 1-58.5 50.5L406 168.5a83 83 0 0 0-2.5 22l-2 14a146 146 0 0 1 2-31l-1-1a83.4 83.4 0 0 0-14.5 25 30 30 0 0 0 3.5 21c-2.2.3-4.2 0-6-1a3 3 0 0 0 3-1 58 58 0 0 1-3.5-9 34 34 0 0 1-2.5 8c.4-2.5-.3-3.2-2-2a101.7 101.7 0 0 1 22.5-45c.7-7.7.4-15.4-1-23l-33.5 53a56.2 56.2 0 0 1 10 16c-.9-1-1.6-1-2 0-2.1-5.3-5.3-10-9.5-14a83.5 83.5 0 0 0-8.5 15 7 7 0 0 0-4 1 26 26 0 0 0-3.5-9c-3.4-4.9-6.6-9.9-9.5-15l2 1 4.5 5a174 174 0 0 0 8.5 16c2.7-5.1 5.7-10.1 9-15a301.2 301.2 0 0 1-32.5-29 42.5 42.5 0 0 1-10-37c1.2-4.4 2.5-8.7 4-13a548 548 0 0 0 19-40c2-13 1.6-26-1-39a325 325 0 0 1-8 23 307.7 307.7 0 0 1-21 35 127 127 0 0 0-11 29c-.5 4-.7 8-.5 12l-2-7c.4-4.4 1.2-8.7 2.5-13l7-18a808.1 808.1 0 0 0 25-42 229 229 0 0 0 13.5-61Z" style="opacity:1"/><path fill="#f4edd1" d="M430.5 160.5c.3-1.5 0-2.8-1-4-1.3 1-2.5.6-3.5-1l-1.5.5c-4.2 5.2-9 9.7-14.5 13.5a151.6 151.6 0 0 0-5.5 39c-1-5.8-1.3-11.8-1-18a83 83 0 0 1 2.5-22l11.5-11.5a523.8 523.8 0 0 0 58.5-50.5c3.2-4.3 5.8-9 8-14 5.8-16 13.5-31 23-45a4 4 0 0 1 0 4c-3.8 9.5-7.1 19.1-10 29a103.7 103.7 0 0 1-22.5 34c-1 1.1-1.8 1.1-2.5 0l-26 24a97.4 97.4 0 0 0-15.5 22Z" style="opacity:1"/><path fill="#f5f0d6" d="M362.5 187.5c1 1 1.3 2.4 1 4h5a42.7 42.7 0 0 1 15.5-24 49 49 0 0 1 3.5-13c-.3-3.5-.3-7.2 0-11-1.3.2-2.5-.2-3.5-1a225 225 0 0 1-6.5-13 6 6 0 0 0-5-2 13 13 0 0 0-.5-5c-3.8-5.5-7.3-11.2-10.5-17-1.1-.8-2.3-1.4-3.5-2a29 29 0 0 1-3.5 5 316 316 0 0 0 6.5-36 64 64 0 0 0-1-20l-1 24a596.4 596.4 0 0 0-8.5 44c-.8-6-.8-11.7 0-17.5-2-1.6-2.7-3.4-2-5.5-3-1.3-4.7-.3-5.5 3 0-2.4-1-3.1-2.5-2 7-13 9.9-27 8.5-42a223 223 0 0 1-2.5-20 363 363 0 0 1 6.5-31c2 27.4 9 53.4 21 78l20 32a85 85 0 0 1 7 19 24 24 0 0 1 0 10 47.1 47.1 0 0 0-6 7c-1.4-7.8-3.4-15.5-6-23a451 451 0 0 1-18-31 544 544 0 0 1-8-25c2.7 18.8 9.7 35.8 21 51 4.8 9 7.6 18.4 8.5 28.5 0 3.5-1 6.6-3 9.5l-20 32c-2.1 3.9-4.3 3.9-6.5 0-.5-2-.7-4-.5-6Z" style="opacity:1"/><path fill="#f9f7e8" d="M463.5 99.5c6.4-.4 8.3 2.2 5.5 8-6 6-12.5 11.7-19.5 17a4.9 4.9 0 0 0-1 4c-3.8 1.7-7.8 3-12 4v3a48 48 0 0 1-10 2 8.5 8.5 0 0 1-6 7.5l3 1a12.8 12.8 0 0 1-6 3 17 17 0 0 0-1.5 4.5c-1.3-1.3-2.7-1.3-4 0-.9-1.3-2-2.3-3.5-3a16.1 16.1 0 0 1 0-11 6.9 6.9 0 0 1 3-4.5 736.3 736.3 0 0 1 52-35.5Z" style="opacity:1"/><path fill="#fcfbf0" d="M362.5 187.5c.3-3.9 0-7.5-1-11a66 66 0 0 0-1.5-14 307.1 307.1 0 0 1-7-31c-.8-7.8-.3-15.5 1.5-23a29 29 0 0 0 3.5-5c1.2.6 2.4 1.2 3.5 2 3.2 5.8 6.7 11.5 10.5 17 .5 1.6.7 3.3.5 5a6 6 0 0 1 5 2c2 4.4 4.2 8.7 6.5 13 1 .8 2.2 1.2 3.5 1-.3 3.8-.3 7.5 0 11-1.8 4.2-3 8.5-3.5 13a42.7 42.7 0 0 0-15.5 24h-5c.3-1.6 0-3-1-4Z" style="opacity:1"/><path fill="#a8a48a" d="M354.5 108.5a68.2 68.2 0 0 0-1.5 23c1.8 10.5 4.1 20.8 7 31a66 66 0 0 1 1.5 14l-2 15a3 3 0 0 1-2-2 27 27 0 0 0 2-10.5c-1-13-3.6-26-7.5-38.5-1.1-6.6-1.6-13.3-1.5-20 2.3-14.7 5-29.3 8.5-44l1-24a64.3 64.3 0 0 1 1 20 300.5 300.5 0 0 1-6.5 36Z" style="opacity:1"/><path fill="#f9f8e9" d="M350.5 120.5c-.1 6.7.4 13.4 1.5 20 4 12.6 6.4 25.4 7.5 38.5a27 27 0 0 1-2 10.5c-15-8.8-25.8-21-32.5-37a67 67 0 0 1 2-26 218 218 0 0 1 13.5-28c1.6-1.1 2.4-.4 2.5 2 .8-3.3 2.6-4.3 5.5-3-.7 2 0 4 2 5.5-.8 5.8-.8 11.6 0 17.5Z" style="opacity:1"/><path fill="#f5ecd0" d="M257.5 104.5a28 28 0 0 0 4 4.5 581.1 581.1 0 0 1 33 24 48.6 48.6 0 0 1 13.5 37.5 49.2 49.2 0 0 0-12.5-22 129 129 0 0 0-26-16 81 81 0 0 0-15-10.5l-9.5-9.5c-2.8-8.3-5.1-16.7-7-25a94 94 0 0 0 19.5 17Z" style="opacity:1"/><path fill="#f9f5e0" d="M472.5 197.5c1.9-4.1 3.6-8.3 5-12.5-1-4.4-1.7-8.9-2-13.5-.2-2.6.5-5 2-7a11 11 0 0 1-2-3.5c1.1-1.7 1.1-3.4 0-5l2-1a14.8 14.8 0 0 1-3-7.5 27 27 0 0 0-.5-18 61 61 0 0 0-6 15l-1-4a75.6 75.6 0 0 0-2 16c-1 1.1-1.7.8-2-1 0 2.8.5 5.7 1.5 8.5-.4 3.1-.9 3-1.5-.5-1.3 5-2.3 10-3 15l-3 3c0 3-.2 5.8-.5 8.5a34.6 34.6 0 0 0-7 9 8.8 8.8 0 0 1-5 1.5c.7 4.4-1.1 7.1-5.5 8a13 13 0 0 0-.5 5c3.4-.5 6.7-1.4 10-2.5 2.1-2.3 4.8-3.8 8-4.5.4-1.2 1-2.2 2-3 2.6-.2 5.2-.8 8-2l-23 15.5a65.4 65.4 0 0 0-11 12.5c-2-4.8-2.4-9.8-1.5-15a175 175 0 0 0 25-37 570 570 0 0 1 14-50 86.9 86.9 0 0 1 18-26 257 257 0 0 1-5 22c.2 22.7.2 45.3 0 68a96.2 96.2 0 0 1-10.5 6Z" style="opacity:1"/><path fill="#f2e5c4" d="M269.5 132.5c7.5 5.3 15.2 10.5 23 15.5a54 54 0 0 1 17 40.5 346.4 346.4 0 0 1-7.5 34c-.4 1-.9 1.8-1.5 2.5a59.3 59.3 0 0 1-10 3.5c5.8-10.7 5.1-21-2-31h3c-.2 1.6.3 3 1.5 4a9 9 0 0 1 5.5-1c1-9.3 1.3-18.6.5-28-3.6-4-6-8.8-7.5-14-1.2-1.2-2.3-1.2-3.5 0a12.5 12.5 0 0 0-9.5-8.5 5.8 5.8 0 0 1-2-5.5c-2.9.3-4.4-1-4.5-4a9.5 9.5 0 0 1-9.5-1.5c-2-2-3.5-4.2-4.5-6.5-2 5.2-1.8 10.3.5 15.5-.2 1.9-.5 3.7-1 5.5a321 321 0 0 0-10.5-30c-.6-2.4-1-4.7-1-7 7 6.9 14.8 12.2 23.5 16Z" style="opacity:1"/><path fill="#f3eedb" d="M191.5 160.5c0 2-1 3-3 3-17-3-34-5.7-51-8.5-8.1-2.9-16.1-6-24-9.5a753.4 753.4 0 0 0-25-15.5 496.9 496.9 0 0 1-20-16.5c3-1 6-.5 9 1.5a181.3 181.3 0 0 0 70 38c14.8 2 29.5 4.6 44 7.5Z" style="opacity:.259"/><path fill="#f5f1d6" d="M408.5 139.5a16.1 16.1 0 0 0 0 11c1.4.7 2.6 1.7 3.5 3 1.3-1.3 2.7-1.3 4 0a17 17 0 0 1 1.5-4.5c2.3-.5 4.3-1.5 6-3l-3-1a8.5 8.5 0 0 0 6-7.5 48 48 0 0 0 10-2v-3c4.2-1 8.2-2.3 12-4-.3-1.5 0-2.8 1-4 7-5.3 13.5-11 19.5-17 2.8-5.8 1-8.4-5.5-8 8.2-6.7 16-14 23.5-22a71 71 0 0 1-14.5 30 415.3 415.3 0 0 1-51 43.5c-5.1 4.1-10 8.6-14.5 13.5-.7-7.7-1-15.3-1-23 .4-1.3 1.3-2 2.5-2Z" style="opacity:1"/><path fill="#fcfcf3" d="M472.5 197.5c-1.7 1.7-3.7 3-6 4a23.9 23.9 0 0 1-8 2c-1 .8-1.6 1.8-2 3-3.2.7-5.9 2.2-8 4.5-3.3 1.1-6.6 2-10 2.5a13 13 0 0 1 .5-5c4.4-.9 6.2-3.6 5.5-8 1.8 0 3.5-.5 5-1.5 1.9-3.4 4.2-6.4 7-9 .3-2.7.5-5.6.5-8.5l3-3c.7-5 1.7-10 3-15 .6 3.4 1.1 3.6 1.5.5a28 28 0 0 1-1.5-8.5c.3 1.8 1 2.1 2 1 .1-5.4.8-10.8 2-16l1 4a61 61 0 0 1 6-15 27 27 0 0 1 .5 18c.3 2.8 1.3 5.3 3 7.5l-2 1c1.1 1.6 1.1 3.3 0 5a11 11 0 0 0 2 3.5c-1.5 2-2.2 4.4-2 7 .3 4.6 1 9.1 2 13.5-1.4 4.2-3.1 8.4-5 12.5Z" style="opacity:1"/><path fill="#faf5e3" d="M288.5 197.5a749 749 0 0 0-21.5-25c-3.7-6-6.9-12.4-9.5-19 .5-1.8.8-3.6 1-5.5a19.6 19.6 0 0 1-.5-15.5c1 2.3 2.5 4.4 4.5 6.5 3 2.2 6.2 2.7 9.5 1.5.1 3 1.6 4.3 4.5 4-.3 2.2.3 4 2 5.5 4.7 1.1 8 4 9.5 8.5 1.2-1.2 2.3-1.2 3.5 0 1.4 5.2 4 10 7.5 14 .8 9.4.6 18.7-.5 28a9 9 0 0 0-5.5 1 4.4 4.4 0 0 1-1.5-4h-3Z" style="opacity:1"/><path fill="#f7f1d6" d="M491.5 96.5c1.2.5 1.9 1.5 2 3-1 7-1.7 14-2 21a857 857 0 0 1 5 52l-1 12a59 59 0 0 1-9 5 720.1 720.1 0 0 1-1.5-61 211 211 0 0 1 6.5-32Z" style="opacity:1"/><path fill="#faf7e6" d="M430.5 160.5c-.5 3.4-1.4 6.7-2.5 10l-1 45c-2.2 1.9-4 4-5.5 6.5-2 1.9-4.4 3-7 3.5-1.4-1-3.1-1.7-5-2a22.7 22.7 0 0 1-5-15c.1-13.3 2-26.3 5.5-39a69.8 69.8 0 0 0 14.5-13.5l1.5-.5c1 1.6 2.2 2 3.5 1 1 1.2 1.3 2.5 1 4Z" style="opacity:1"/><path fill="#92886a" d="M203.5 28.5a389.4 389.4 0 0 0 25.5 45c9 10.8 18.4 21.1 28.5 31a94 94 0 0 1-19.5-17c1.9 8.3 4.2 16.7 7 25l9.5 9.5a81 81 0 0 1 15 10.5 77.9 77.9 0 0 1-23.5-16c0 2.3.4 4.6 1 7a321 321 0 0 1 10.5 30c2.6 6.6 5.8 13 9.5 19a749 749 0 0 1 21.5 25c7.1 10 7.8 20.3 2 31-.3.8-.8 1.5-1.5 2-1.3-1.3-2.5-1.3-3.5 0-3.8-.6-7.5-1.7-11-3.5a140.1 140.1 0 0 1-28-22.5l-1 1.5a83.9 83.9 0 0 0 13 25.5c-.7 0-1 .3-1 1a55 55 0 0 1-10.5-17c-.4 3-1 3.4-2 1-1.7-6-3-12-4-18a127.4 127.4 0 0 0-32.5-24c-1.3 7.7-.3 15 3 22 6 18 16.7 32.7 32 44l10 8v1a108.6 108.6 0 0 1-28.5-24l15.5 29c-.8.3-1.2 1-1 2a1446 1446 0 0 0-23.5-42 96 96 0 0 0-22.5-21c-18.8-7.7-37.5-15.8-56-24.5-5.8-3.4-11.3-7.3-16.5-11.5-.7-.7-.7-1.3 0-2a200 200 0 0 0 29.5 18.5 350.2 350.2 0 0 1 46 19l15.5 13.5c-2.3-7.1-4.3-14.5-6-22-.2-4.3-.7-8.4-1.5-12.5-15.7-6.5-32-10.2-49-11-12.4-2.3-24.4-6-36-11a28.8 28.8 0 0 1-6-4.5c7.9 3.4 15.9 6.6 24 9.5l51 8.5c5.2 1.7 10.3 3.7 15.5 6 2-16.4 4.4-32.7 7-49 2.1-31.2-1-61.9-9.5-92 .7-1.3 1.3-1.3 2 0Z" style="opacity:.773"/><path fill="#f5edd7" d="M252.5 146.5c.3 4.4 0 8.7-1 13l5 2c-.7 1.6-.5 3.2.5 5 2.6 5 5.6 9.6 9 14a4 4 0 0 1 0 4c-1.5-1.3-2.7-1-3.5 1 .7 3.2 1.7 6.5 3 10a3 3 0 0 1 3 1 55 55 0 0 0 13 12c1.4 1.8 2.6 3.8 3.5 6 1.8-1.1 2.6-.4 2.5 2-1.6-.1-2.8.5-3.5 2l-1-1c-2.5 4.3-6 5.2-10.5 2.5a6.9 6.9 0 0 0-5-3l1-1a5 5 0 0 0-3-.5c.1-1 0-2-.5-3l-1 1a12.1 12.1 0 0 1-3.5-4.5 8.4 8.4 0 0 0-4-.5c-1-3.7-3.3-6-7-7a8 8 0 0 0-1-4c-1.7-1-3-2.4-4-4 1.2-31-3.7-61-14.5-90-1-2.7-2.5-5-4.5-7-2.7 1-4.7 0-6-3-.7.5-1.2 1.2-1.5 2-.3-1.5-1-2.9-2-4l-.5 37.5 2 6c-1.8 2.8-2.5 6-2 9.5h-3v15h-4c-.8 5.4 1.6 8.2 7 8.5l-1 1a7 7 0 0 1 3.5 2.5 9 9 0 0 0 4-1 9.8 9.8 0 0 0 5 2 39 39 0 0 0 6.5-4c.6-7.1 1-14.3 1-21.5a4.6 4.6 0 0 0-2.5-3.5 135 135 0 0 0-4.5-31c-1 1.1-1.8 1.1-2.5 0-.8-4.9-.6-9.5.5-14a175.7 175.7 0 0 1 14 96 143.6 143.6 0 0 0-32-23l-1-5.5 6.5-49.5c.7-11.3.7-22.7 0-34a813 813 0 0 0-6-43 206.5 206.5 0 0 0 25 40c4.3 9.7 7.3 19.7 9 30l-18-22c-3-4.2-5.6-8.5-8-13-.7 1-.7 2 0 3 2.4 4.5 5 8.8 8 13 9.7 10 17.4 21.3 23 34 1.9 7.5 4 14.8 6.5 22Z" style="opacity:.998"/><path fill="#faf2e5" d="M225.5 96.5v2a33.5 33.5 0 0 0-.5 14c.7 1.1 1.6 1.1 2.5 0a135 135 0 0 1 4.5 31c1.4.7 2.2 1.9 2.5 3.5 0 7.2-.4 14.4-1 21.5a39 39 0 0 1-6.5 4 9.8 9.8 0 0 1-5-2 9 9 0 0 1-4 1 7 7 0 0 0-3.5-2.5l1-1c-5.4-.3-7.8-3.1-7-8.5h4v-15h3c-.5-3.5.2-6.7 2-9.5l-2-6c0-12.6.3-25 .5-37.5 1 1.1 1.7 2.5 2 4 .3-.8.8-1.5 1.5-2 1.3 3 3.3 4 6 3Z" style="opacity:1"/><path fill="#fcfcf6" d="M417.5 166.5h5c-.4 2.4-1 4.7-2 7a4 4 0 0 0 1.5 3 244 244 0 0 1 0 32c-.3 3.6-1.6 6.6-4 9-3.3-.5-6.7-.8-10-1-1.4-12.5-.9-25 1.5-37.5a7 7 0 0 1 3-4.5c1.4 2.1 2.4 4.5 3 7l1-1.5c-.3-4.4 0-9 1-13.5Z" style="opacity:1"/><path fill="#f8f6e5" d="M354.5-.5h6a220 220 0 0 0 20.5 83 241.8 241.8 0 0 1 28 47 92.7 92.7 0 0 1 22.5-15.5c9.7-7.5 19.7-14.5 30-21L486 68.5A259.5 259.5 0 0 1 508.5 35c5.4-2.6 9.4-1.3 12 4A395 395 0 0 0 501 99.5a400 400 0 0 0 0 40c.8 12 2.3 24 4.5 36 20.7-6.6 41.7-12 63-16.5 23.1-8.2 44.8-19 65-32.5 1.8-1.1 3.8-1.8 6-2a78.2 78.2 0 0 1-14 11.5 327.4 327.4 0 0 1-64 29c-13.2 3.2-26.6 6.2-40 9-6.6 2.2-12.9 4.7-19 7.5a7 7 0 0 1-4 1c.2-7.3 0-14.7-.5-22a239 239 0 0 1-1-74c5.1-16.7 11-33.2 17.5-49.5l-1-1.5c-3.3 3.3-6.1 7-8.5 11-11.9 23.9-29 43-51.5 57.5-17.7 9.9-34 21.7-49 35.5-1-4.4-2.2-8.7-3.5-13a502 502 0 0 0-26-45 196 196 0 0 1-20.5-82Z" style="opacity:.168"/><path fill="#f8f5e8" d="m510.5 245.5-21 13.5c-6.3 3-13 4.6-20 4.5 0-1.7.7-3 2-4a970.1 970.1 0 0 1 22.5-34c10.3-12 22.1-22.1 35.5-30.5 18.9-8.3 37.5-17 56-26a238.4 238.4 0 0 0 37-26c-1.4-.3-2.7 0-4 1a286 286 0 0 1-84 46 155 155 0 0 0-64 68.5c-1.2 1-2.6 1-4 .5a315 315 0 0 1-15-13.5c9-3.8 17-9.2 24-16a92.7 92.7 0 0 0 22.5-44 19 19 0 0 0 5.5-3c4-1.2 8-2.7 12-4.5 23.6-5.4 47-11.7 70-19 16-7 31.4-15 46-24-8.6 11.6-17.6 23-27 34a383.8 383.8 0 0 0-63 51c-10.5 8.4-20.9 16.9-31 25.5Z" style="opacity:1"/><path fill="#fbf8ea" d="M470.5 118.5c.5 0 .9.4 1 1-6.7 14-11.2 28.7-13.5 44-5.8 18-15 34-27.5 48a267.2 267.2 0 0 1-.5-40c2-10.2 6.3-19.2 13-27a337 337 0 0 1 27.5-26Z" style="opacity:1"/><path fill="#f7ebdf" d="M143.5 196.5c-1.2 2.3-.9 4.1 1 5.5-.8.3-1.5.8-2 1.5 1.5 1.3 2.2 3 2 5 1.5-.3 2.8 0 4 1 1 2.1 2.1 4.1 3.5 6 .7 1.3 1.3 1.3 2 0 1.5.8 1.7 1.6.5 2.5 1.3 1.1 2.4 1.3 3.5.5 1.7 1.3 2.8 3 3.5 5 2.6 1 5.3 1.3 8 1a8 8 0 0 0 3 6.5l-1 1c1.6.5 3.3.7 5 .5-.1 1.8.2 3.4 1 5 3.2 1.4 6.5 2.4 10 3 1.3 1 1.3 2 0 3-.6-.2-1-.5-1.5-1l-9.5 2c-.3.8-.8 1.5-1.5 2a37 37 0 0 0-17 1l-2.5-.5c.4-1.8-.5-3.3-2.5-4.5a4 4 0 0 1-2 1c-3-2-6.3-2.6-9.5-2a181.2 181.2 0 0 1-15.5-21 827 827 0 0 0-37-78c-5-7.1-10.1-14.1-15.5-21l.5-1c6.4 5.1 13 10.1 19.5 15 17.4 19.7 34 40 50 61Z" style="opacity:1"/><path fill="#faf6e7" d="M313.5 191.5c-.9-2.2-1.2-4.6-1-7-.2-4.3 0-8.7.5-13 1.4-1 2.9-1.2 4.5-.5l11.5 21.5a34 34 0 0 1-1 21 15 15 0 0 1-6.5 2c.3-3-1-4.3-4-4 0-6.3-.8-12.6-2.5-19-.4-.6-.9-.9-1.5-1Z" style="opacity:1"/><path fill="#9d9480" d="M68.5 113.5c6.5 5.6 13.1 11.1 20 16.5 8.5 5 16.9 10.2 25 15.5l-15-6.5c15.3 17.3 29.8 35 43.5 53.5 4.3 5 8.8 9.6 13.5 14a176 176 0 0 0 34 29l4 4a109 109 0 0 1-23-15.5 1040 1040 0 0 1-27-27.5 1101 1101 0 0 0-50-61c-6.6-4.9-13-9.9-19.5-15l-.5 1c5.4 6.9 10.5 13.9 15.5 21a827 827 0 0 1 37 78c4.7 7.4 9.9 14.4 15.5 21l2 3c-.7 0-1 .3-1 1a170 170 0 0 1-16.5-21 1737 1737 0 0 1-21-48 255.4 255.4 0 0 0-39.5-62c.7-.9 1.7-1.2 3-1Z" style="opacity:.937"/><path fill="#f4eee5" d="M719.5 380.5v4c-31-.2-60.6-6.3-89-18.5-18-9.8-36.3-18.8-55-27a176.9 176.9 0 0 0-51-9.5c-3.7-.4-7.3-.8-11-1a8.8 8.8 0 0 0-4-1.5c18.1-1 36.1-3 54-6 12-2.6 23.4-6.9 34-13a258.8 258.8 0 0 1 102-49c-12.3.5-24.6.5-37 0a904 904 0 0 0-53-6c-14-.3-28-.5-42-.5a4044 4044 0 0 1 35.5-76c11.8-18.7 25.3-36 40.5-52-1.2-.8-2.5-.8-4 0-2.2.2-4.2.9-6 2 4-5 8.5-5.7 13.5-2a4 4 0 0 1 0 4c-5 4.7-9.7 9.7-14 15-7 10.6-14.3 21-22 31a789.6 789.6 0 0 0-34.5 75c28.6-1.4 57 .5 85 5.5 13.1 0 26.1.7 39 2 1.5 2.9.9 5.2-2 7a577 577 0 0 0-39 14 262 262 0 0 0-23 16 161 161 0 0 1-15 8 128.7 128.7 0 0 1-54 29 311.5 311.5 0 0 1 60 29 224.3 224.3 0 0 0 92 20.5Z" style="opacity:.393"/><path fill="#f7eadd" d="M189.5 235.5a176 176 0 0 1-34-29c0-2 .6-4 2-5.5a56.9 56.9 0 0 1-8-5.5 19 19 0 0 1 3-5 13 13 0 0 0-7-1 11 11 0 0 1 1-6.5c3-1.6 6.2-2.7 9.5-3.5.8.6 1.6 1.1 2.5 1.5l-1 1c1.3-.1 2.5 0 3.5.5l1 4c1.7-1.4 3-1 4 1l1-1c1.7.7 3.6 1.2 5.5 1.5 1.3 1 1.3 2 0 3 2.7 0 4.5 1.1 5.5 3.5l1-2c.6 4.5 3.1 7.2 7.5 8-.1 1.8.2 3.4 1 5 1.8-.1 3.4.4 5 1.5a4.4 4.4 0 0 1-4 1.5v3a9 9 0 0 0 5.5-1 44 44 0 0 1 5 9l1-3a143 143 0 0 1 3.5 16h5c.2 2.7 0 5.4-.5 8a6.5 6.5 0 0 0-4.5-1 3 3 0 0 0-1-3c-2.8 1.3-4.4.3-5-3-1.7 2.7-3.3 2.7-5 0a6.9 6.9 0 0 0-3 2Z" style="opacity:1"/><path fill="#f9efcf" d="M334.5 212.5c.1 1.8-.2 3.4-1 5a72.3 72.3 0 0 1-13 3h-3c.3-2.2 0-4.2-1-6l-3-23c.6.1 1.1.4 1.5 1a68.3 68.3 0 0 1 2.5 19c3-.3 4.3 1 4 4a15 15 0 0 0 6.5-2 34 34 0 0 0 1-21L317.5 171a4.2 4.2 0 0 0-4.5.5c-.5 4.3-.7 8.7-.5 13-1-8.2-1.7-16.5-2-25 1.1-5.1 1.8-5.1 2 0 1-.1 2 0 3 .5a47 47 0 0 0 8.5 14.5 18 18 0 0 0 5 10c1 2.6 1.6 5.3 2 8l1-1c0 7.2.8 14.2 2.5 21Z" style="opacity:1"/><path fill="#999175" d="M225.5 96.5c2 2 3.5 4.3 4.5 7a230 230 0 0 1 14.5 90v5c-.6-2-1.5-4-2.5-6l-1 4a4.3 4.3 0 0 1-1.5-2 176 176 0 0 0-14-96v-2Z" style="opacity:1"/><path fill="#f1e6d0" d="M65.5 114.5c16 18.6 29.2 39.3 39.5 62a1737 1737 0 0 0 21 48 170 170 0 0 0 21.5 26c-12.4 1-24.7 2-37 3.5-18.3 5-37 7-56 6a348.5 348.5 0 0 1-36-7.5c-1.2.3-1.2.8 0 1.5l26 12c6.9 5 13.9 10 21 14.5a289 289 0 0 0 37 33c4.5 5 9.5 9.4 15 13.5a204.1 204.1 0 0 0 42 20.5h-3c-8.7-3-17.3-5.1-26-6.5-5.6-4-11.6-7.1-18-9.5.2-1.4 0-2.7-.5-4a54.8 54.8 0 0 0-10.5-6 23 23 0 0 0-8-8c-1.1-1-1.1-1.8 0-2.5-1.2-.5-2-1.3-2.5-2.5l-3 3c-.6-1.5-1.4-2.8-2.5-4-.6.1-1 .5-1 1a1414 1414 0 0 0-21-21.5c-5.3-3.3-10-7.3-14-12l-32-16c-3.5-2.3-3.9-5-1-8 1.9-1 3.9-1.5 6-1.5a256 256 0 0 0 43.5 7l21.5-1.5a359 359 0 0 1 20-4.5c9.4-.5 18.8-1.7 28-3.5a966 966 0 0 1-18.5-26.5l-25-58a198 198 0 0 1-12-21l-16-22c-.9-2.2-.4-3.8 1.5-5Z" style="opacity:.667"/><path fill="#f2e7c8" d="M252.5 146.5c3.2 8.5 7 16.8 11.5 25 8.2 9.5 16.2 19.1 24 29 4.8 9 4.6 17.8-.5 26.5-3.4.5-6.7.2-10-1-13-6.9-24-16-33-27.5v-5c1 1.6 2.3 3 4 4a8 8 0 0 1 1 4c3.7 1 6 3.3 7 7 1.4-.2 2.7 0 4 .5a12 12 0 0 0 3.5 4.5l1-1c.5 1 .6 2 .5 3 1-.1 2 0 3 .5l-1 1c2.1.3 3.8 1.3 5 3 4.5 2.7 8 1.8 10.5-2.5l1 1a3.3 3.3 0 0 1 3.5-2c.1-2.4-.7-3.1-2.5-2-1-2.2-2-4.2-3.5-6a55 55 0 0 1-13-12 3 3 0 0 0-3-1 66.4 66.4 0 0 1-3-10c.8-2 2-2.3 3.5-1a4 4 0 0 0 0-4c-3.4-4.4-6.4-9-9-14-1-1.8-1.2-3.4-.5-5l-5-2c1-4.3 1.3-8.6 1-13Z" style="opacity:1"/><path fill="#f5f1d7" d="M343.5 193.5c-8.3-14-17.7-27.3-28-40-4-4-7.7-8.4-11-13-.2-4 0-8 .5-12a127 127 0 0 1 11-29 307.7 307.7 0 0 0 21-35 325 325 0 0 0 8-23c2.6 13 3 26 1 39a548 548 0 0 1-19 40c-1.5 4.3-2.8 8.6-4 13-2.5 14 .8 26.4 10 37 10.2 10.5 21 20.2 32.5 29-3.3 4.9-6.3 9.9-9 15-3-5.1-6-10.5-8.5-16l-4.5-5Z" style="opacity:1"/><path fill="#fcfbed" d="M315.5 153.5c1.2-2.8.8-5.3-1-7.5-2-.4-3.6-1.2-5-2.5-.6-3.7-1-7.4-1-11 .8-4 1.3-8 1.5-12a63 63 0 0 0 6-10 114 114 0 0 0 3.5-14 7 7 0 0 1 4.5 0 49 49 0 0 1 3.5-9c.6.2 1 .5 1.5 1a9.3 9.3 0 0 1 4-6c1.4-3 1.7-6 1-9l1 2a6.5 6.5 0 0 1 3-3 73 73 0 0 0 4.5-16c.6-.2 1-.5 1.5-1 .8 8 .7 16-.5 24-2.3.4-3 1.4-2 3a30 30 0 0 0-4 6.5c.8 1.8.6 3.6-.5 5.5l-5.5 3 2 2a16 16 0 0 1-6.5 8 17 17 0 0 1-1.5 4.5c.5.4.8 1 1 1.5a22 22 0 0 0-3.5 9l-1-4a114 114 0 0 1-3.5 18.5c1.2 1.5 1.2 3 0 4.5 3.6 3.7 4 7.7 1 12a7 7 0 0 1-2.5-2c-.3 1-.8 1.6-1.5 2Z" style="opacity:1"/><path fill="#f8f3da" d="M380.5 213.5c-.2 2-.9 2.3-2 1a56.2 56.2 0 0 0-10-16l33.5-53a85.3 85.3 0 0 1 1 23 101.7 101.7 0 0 0-22.5 45Z" style="opacity:1"/><path fill="#efddbc" d="M257.5 232.5c2.6 3 5 6.2 7 9.5l-1 1.5a71.4 71.4 0 0 1-15.5-23c-.9-1.4-1.4-1.2-1.5.5 3.7 8.3 7.7 16.4 12 24.5-1 2.3-2.6 3.3-5 3l-10-8a9.2 9.2 0 0 1 5-1c-1.9-6.2-3-12.5-3.5-19a5 5 0 0 0-.5 3h-3a139 139 0 0 1-8-22 81 81 0 0 1-8.5-6l-1-9a44 44 0 0 0-4.5 3c-1.9-.4-3.7-.8-5.5-1-.6 2.5-1.5 2.5-2.5 0 .5 2.6.5 5.3 0 8-3.3-7-4.3-14.3-3-22a128 128 0 0 1 32.5 24c1 6 2.3 12 4 18 1 2.4 1.6 2 2-1a55 55 0 0 0 10.5 17Z" style="opacity:1"/><path fill="#f6f0d4" d="M493.5 187.5c1.1.3 1.8 1.1 2 2.5a99.9 99.9 0 0 1-16.5 32.5c2.8-9.4 4.8-19 6-29 3-1.9 5.8-3.9 8.5-6Z" style="opacity:1"/><path fill="#f0eacc" d="M401.5 204.5c.7 5.4 1.7 10.7 3 16a26 26 0 0 1-13-2 30 30 0 0 1-3.5-21 83.4 83.4 0 0 1 14.5-25l1 1a146.4 146.4 0 0 0-2 31Z" style="opacity:1"/><path fill="#efe2cc" d="M143.5 196.5a1040 1040 0 0 0 27 27.5 109 109 0 0 0 23 15.5l43 26c1 1.2 1.3 2.5 1 4-1.8.1-3.5-.2-5-1-7.3-4-15-7.5-23-10.5a375 375 0 0 0-59-7 401 401 0 0 1-7-6.5l-2-3c3.2-.6 6.4 0 9.5 2a4 4 0 0 0 2-1c2 1.2 2.9 2.7 2.5 4.5l2.5.5a37 37 0 0 1 17-1c.7-.5 1.2-1.2 1.5-2l9.5-2c.4.5 1 .8 1.5 1 1.3-1 1.3-2 0-3-3.5-.6-6.8-1.6-10-3a9.1 9.1 0 0 1-1-5 13 13 0 0 1-5-.5l1-1a8 8 0 0 1-3-6.5c-2.7.3-5.4 0-8-1-.7-2-1.8-3.7-3.5-5-1 .8-2.2.6-3.5-.5 1.2-1 1-1.7-.5-2.5-.7 1.3-1.3 1.3-2 0a33.9 33.9 0 0 1-3.5-6 4.9 4.9 0 0 0-4-1c.2-2-.5-3.7-2-5 .5-.7 1.2-1.2 2-1.5-1.9-1.4-2.2-3.2-1-5.5Z" style="opacity:1"/><path fill="#e9d7ba" d="M193.5 193.5a96 96 0 0 1 22.5 21c8.1 13.9 16 27.9 23.5 42 3.3 4.6 2.3 7-3 7.5a42.7 42.7 0 0 1-6-4.5c.7.1 1.4 0 2-.5l-.5-5.5a40.8 40.8 0 0 1-7-13 11 11 0 0 0-6.5-1 25 25 0 0 0-.5-7c-.8 5-2 4.8-3.5-.5.5-.4.8-1 1-1.5a48 48 0 0 1-6-12c-4.5-1.7-6.8-5-7-10l-8-4a20.6 20.6 0 0 1-1-11Z" style="opacity:1"/><path fill="#f6e7d6" d="M243.5 240.5a88.2 88.2 0 0 1-32-44c.5-2.7.5-5.4 0-8 1 2.5 1.9 2.5 2.5 0 1.8.2 3.6.6 5.5 1a44 44 0 0 1 4.5-3l1 9a81 81 0 0 0 8.5 6 139 139 0 0 0 8 22h3c-.1-1 0-2 .5-3 .5 6.5 1.6 12.8 3.5 19-1.8-.1-3.5.2-5 1Z" style="opacity:1"/><path fill="#8c8674" d="M513.5 328.5c-2.9.2-5.6-.4-8-2 .6-1 1-2 1-3a202 202 0 0 0 74-9.5c6.3-2.5 12.3-5.5 18-9a220.1 220.1 0 0 1 54-32 464.4 464.4 0 0 0-115 18c-12 6-22.4 13.7-31.5 23.5a14.7 14.7 0 0 0-1.5 8 18.6 18.6 0 0 1-3-5 89 89 0 0 1 26-24c2.5-.8 4.9-1.8 7-3 14-5 28.3-8.8 43-11.5 27-3.7 54-6.7 81-9a603 603 0 0 1 23-8l-21-1a4092 4092 0 0 0-49-6 281 281 0 0 0-40 .5c-1.4-1-3-1.3-5-1 .2-1.3-.1-2.3-1-3l34-72a17 17 0 0 1 4-6 269.4 269.4 0 0 0-59 46.5 1220 1220 0 0 1-33 26.5c0-.7-.3-1-1-1 10.1-8.6 20.5-17.1 31-25.5a383.8 383.8 0 0 1 63-51c9.4-11 18.4-22.4 27-34-14.6 9-30 17-46 24-23 7.3-46.4 13.6-70 19-4 1.8-8 3.3-12 4.5 0-.7-.3-1-1-1 6.1-2.8 12.4-5.3 19-7.5 13.4-2.8 26.8-5.8 40-9 22.4-7.4 43.7-17 64-29 5.1-3.3 9.8-7.2 14-11.5 1.5-.8 2.8-.8 4 0a338.6 338.6 0 0 0-40.5 52 4044 4044 0 0 0-35.5 76c14 0 28 .2 42 .5a904 904 0 0 1 53 6c12.4.5 24.7.5 37 0a258.8 258.8 0 0 0-102 49c-10.6 6.1-22 10.4-34 13a490 490 0 0 1-54 6c1.6.2 2.9.7 4 1.5Z" style="opacity:1"/><path fill="#9c8c64" d="M257.5 104.5a262.3 262.3 0 0 1 44 33c1-1.2 1.3-2.5 1-4l2 7c3.3 4.6 7 9 11 13 10.3 12.7 19.7 26 28 40l-2-1a42.7 42.7 0 0 1-4.5-6c1 5 2 10.2 2.5 15.5a41.7 41.7 0 0 1-4 15l19-.5a7 7 0 0 1 4-1c6.2.3 12.2 0 18-1 .4-1 1.1-1 2 0 1.1 1.3 1.8 1 2-1 1.7-1.2 2.4-.5 2 2 .3 1.5 1.3 2.2 3 2 1.8 1 3.8 1.3 6 1a26 26 0 0 0 13 2c-1.3-5.3-2.3-10.6-3-16l2-14c-.3 6.2 0 12.2 1 18a22.7 22.7 0 0 0 5 15c.1.6.4 1.1 1 1.5a7 7 0 0 1-5.5-.5 536 536 0 0 1-2 3c-2.3-.5-2.8-1.7-1.5-3.5-13-4.6-26.2-6.8-40-6.5a241 241 0 0 0-40.5 5l-2.5-.5c1-.3 1.6-.8 2-1.5 4.4-.6 8.7-1.6 13-3a9.1 9.1 0 0 0 1-5c.7-.4 1.2-1 1.5-2 .7-7 .3-14-1-21a165 165 0 0 1-9-19l-19-23a88 88 0 0 0 3.5 12c.3 8.5 1 16.8 2 25-.2 2.4.1 4.8 1 7l3 23h-1a95.8 95.8 0 0 1-3.5-17c-.4-.6-.9-.9-1.5-1-1-2.4-1.3-5.1-1-8a54 54 0 0 0-17-40.5c-7.8-5-15.5-10.2-23-15.5a129 129 0 0 1 26 16 50 50 0 0 1 12.5 22c.8-14.5-3.7-27-13.5-37.5a581.1 581.1 0 0 0-33-24 25.1 25.1 0 0 1-4-4.5Z" style="opacity:1"/><path fill="#f1e9bd" d="M385.5 217.5c-1.7.2-2.7-.5-3-2a34 34 0 0 0 2.5-8c1 3 2 6 3.5 9a3 3 0 0 1-3 1Z" style="opacity:1"/><path fill="#f3efd4" d="M376.5 214.5c-5.8 1-11.8 1.3-18 1a83.5 83.5 0 0 1 8.5-15c4.2 4 7.4 8.7 9.5 14Z" style="opacity:1"/><path fill="#f2e7c8" d="M341.5 192.5c3 5.1 6 10.1 9.5 15a26 26 0 0 1 3.5 9l-19 .5c2.3-4.7 3.6-9.7 4-15-.6-5.3-1.4-10.5-2.5-15.5a47 47 0 0 0 4.5 6Z" style="opacity:1"/><path fill="#ebdbaf" d="M334.5 212.5a87.9 87.9 0 0 1-2.5-21l-1 1c-.4-2.7-1-5.4-2-8a18 18 0 0 1-5-10 47.4 47.4 0 0 1-8.5-14.5 5 5 0 0 0-3-.5c-.2-5.1-.9-5.1-2 0a88 88 0 0 1-3.5-12l19 23a165 165 0 0 0 9 19c1.3 7 1.7 14 1 21-.3 1-.8 1.6-1.5 2Z" style="opacity:1"/><path fill="#f3edd7" d="m599.5 179.5-34 72c0 1-.5 1.7-1.5 2-1.1.8-2 .8-2.5 0 5.1-11.2 10-22.6 14.5-34a396 396 0 0 1 23.5-40Z" style="opacity:.996"/><path fill="#e0cb9f" d="M310.5 196.5c.6.1 1.1.4 1.5 1 .7 5.8 1.8 11.5 3.5 17v7c-3.2-.1-6.2.6-9 2l-1-2.5c2.4-8 4-16.2 5-24.5Z" style="opacity:1"/><path fill="#94917e" d="M471.5 259.5c0-.7-.3-1-1-1a155 155 0 0 1 64-68.5 286 286 0 0 0 84-46c1.3-1 2.6-1.3 4-1a238.4 238.4 0 0 1-37 26c-18.5 9-37.1 17.7-56 26a155.5 155.5 0 0 0-35.5 30.5 970.1 970.1 0 0 0-22.5 34Z" style="opacity:1"/><path fill="#b1976d" d="M315.5 214.5h1c1 1.8 1.3 3.8 1 6h3c-.4.7-1 1.2-2 1.5l2.5.5a241 241 0 0 1 40.5-5c13.8-.3 27 1.9 40 6.5-1.3 1.8-.8 3 1.5 3.5l2-3a7 7 0 0 0 5.5.5c-.6-.4-.9-.9-1-1.5 1.9.3 3.6 1 5 2-2.5-.4-3.2.3-2 2-1.6-1.2-3-1-4 .5 6.1 2.9 12.1 6 18 9.5-.5.8-1.1 1.1-2 1a148 148 0 0 0-103-11.5c-5.4 1.2-10.8 2.7-16 4.5 1.4-1.2 1.2-1.8-.5-2a5.5 5.5 0 0 1-5.5 1.5c3-1.5 5.7-3.5 8-6 2-.3 3.8-.8 5.5-1.5 1.6.7 3.1.2 4.5-1.5-.6-.5-1.3-.6-2-.5v-7Z" style="opacity:1"/><path fill="#f4efcb" d="M427.5 218.5c1 3.8 1.3 7.8 1 12a33 33 0 0 1-9-4c3-2.4 5.7-5 8-8Z" style="opacity:1"/><path fill="#f0e1c0" d="M285.5 230.5c-5.5 3-11 6.3-16.5 10a27.7 27.7 0 0 1-10.5-9 83.9 83.9 0 0 1-13-25.5l1-1.5c8.3 8.7 17.7 16.2 28 22.5 3.5 1.8 7.2 3 11 3.5Z" style="opacity:1"/><path fill="#f9e9d4" d="M487.5 319.5c-3.1-4-5.3-9-6.5-15-.7-1.3-1.3-1.3-2 0-3.7-4-6-8.6-7-14a45 45 0 0 1-8.5-11 16.3 16.3 0 0 1-9.5-8c-2.6-3-5.7-5.2-9.5-6.5-2.6-2-4.6-4.6-6-7.5a85.6 85.6 0 0 1-10-4.5 24 24 0 0 0-16-9 18 18 0 0 0-7-4.5c-1.8 1-3 .4-3.5-2l-1 2c-8-2-15.7-4.7-23-8a30.8 30.8 0 0 1-15 0c-7.2.6-14.4 1.4-21.5 2.5a22 22 0 0 0-11 4 78.8 78.8 0 0 1-17 2.5v3l-8 1c.4 3.3-.8 4.3-3.5 3-1.7 1.8-3.5 2.1-5.5 1-2.4.6-4.7 1.2-7 2-.8 2-1.2 4-1 6h-7v3c-2 0-4 .3-6 1a49 49 0 0 1-6.5 5c-.4-.5-1-.8-1.5-1-2.3 4-5.6 6.3-10 7a10 10 0 0 1-2 6 8 8 0 0 0-9 3c-1 2.5-2.4 4.8-4 7a8.4 8.4 0 0 0-3.5 0 7 7 0 0 1-2.5 4.5l1 1a10 10 0 0 0-4 5.5 9.8 9.8 0 0 0-6 5.5c-1 .5-2 .3-3-.5 1.8-5 4.1-9.6 7-14 10-12.7 21-24.3 33-35a7 7 0 0 1 4-2c1.6-.2 3.1.1 4.5 1 5.5-6.7 12.6-10 21.5-9.5 3.3-3 7-5.4 11-7 10.3-3 20.7-5.4 31-7.5a9.3 9.3 0 0 1 5-4.5 265 265 0 0 1 60 7c1.1.7 1.1 1.6 0 2.5 7.4 1.3 14.5 3.3 21.5 6 2.6 3.4 6.1 5 10.5 5 1.4 3.6 4.1 6.1 8 7.5 2.1 4 4.8 7.5 8 10.5 3.3 1.5 5.8 3.8 7.5 7 1.4-.8 2.5-.3 3.5 1.5l-1 1 7 5a7 7 0 0 1 2.5 4.5 14 14 0 0 1 4 3l14 25c.5 3 .7 6 .5 9Z" style="opacity:1"/><path fill="#f5f3da" d="M473.5 227.5a42.7 42.7 0 0 1-19 14c-3 .6-6 .8-9 .5l-8.5-6.5c-1-4-.2-7.6 2-11a268 268 0 0 1 42.5-29c0 11.2-2.6 21.9-8 32Z" style="opacity:1"/><path fill="#fcfaed" d="M468.5 207.5h8c-.5 7.3-2.9 14-7 20a6 6 0 0 1-5 2c.1 1 0 2-.5 3-1.7.7-3.2 1.7-4.5 3a9 9 0 0 0-9 2l-9-2c-.7-3.7-.4-7.3 1-11 3.4-2 7-3.5 11-4.5a55 55 0 0 1 6-6.5 47 47 0 0 0 9-6Z" style="opacity:1"/><path fill="#f0d9b7" d="M424.5 238.5c8.1 4.3 15.8 9.5 23 15.5 9.2 8.9 18 18 26.5 27.5 2.9 4.2 4.9 9 6 14 6.3 8 10.2 17 11.5 27-.7-1-1.7-1.7-3-2 0-.7-.3-1-1-1 .2-3 0-6-.5-9l-14-25a14 14 0 0 0-4-3 7 7 0 0 0-2.5-4.5l-7-5 1-1c-1-1.8-2.1-2.3-3.5-1.5a15.3 15.3 0 0 0-7.5-7c-3.2-3-5.9-6.5-8-10.5a12.8 12.8 0 0 1-8-7.5c-4.4 0-7.9-1.6-10.5-5-7-2.7-14.1-4.7-21.5-6 1.1-1 1.1-1.8 0-2.5a265 265 0 0 0-60-7 9.3 9.3 0 0 0-5 4.5c-10.3 2-20.7 4.6-31 7.5-4 1.6-7.7 4-11 7-8.9-.4-16 2.8-21.5 9.5a6.5 6.5 0 0 0-4.5-1 113 113 0 0 1 37-21c5.2-1.8 10.6-3.3 16-4.5a148 148 0 0 1 103 11.5Z" style="opacity:1"/><path fill="#eddcb9" d="M253.5 249.5c-3 3.3-6.3 6.3-10 9l-3-4-15.5-29a109 109 0 0 0 28.5 24Z" style="opacity:1"/><path fill="#fcf8f2" d="M564.5 241.5c-.1 2.2-.8 4.2-2 6a9.7 9.7 0 0 0-6.5 4l-1-1a39 39 0 0 1-4.5 4.5c-7.5.8-15 .6-22.5-.5l-7.5 2c-3.6-.6-4-2.1-1-4.5 2-1.6 4-1.5 6 .5 1.2-.3 1.2-.8 0-1.5 1-.5 2-.6 3-.5 0-3.3 1.6-4.8 5-4.5 1.4-2 2.4-4 3-6.5 1.2-.4 2.2-1 3-2h-4c1.7-1.3 2.8-3 3.5-5l6-4c.5-2.6.7-5.3.5-8 4.4.5 7.4-1.4 9-5.5 1.6-.4 3-1.3 4-2.5.6.2 1 .5 1.5 1a29 29 0 0 1 1.5-4c3.6-1 7.3-1.3 11-1-1.8 5-2.6 10-2.5 15a13 13 0 0 0-5.5 12c-3.4.9-3.9 2.5-1.5 5 1-2.4 1.6-2.1 1.5 1Z" style="opacity:1"/><path fill="#f1e4cd" d="M113.5 145.5c1.8 1.7 3.8 3.2 6 4.5 11.6 5 23.6 8.7 36 11 17 .8 33.3 4.5 49 11 .8 4 1.3 8.2 1.5 12.5 1.7 7.5 3.7 14.9 6 22L196.5 193a350.2 350.2 0 0 0-46-19 193.1 193.1 0 0 1-29.5-18.5c-.7.7-.7 1.3 0 2 5.2 4.2 10.7 8 16.5 11.5 18.5 8.7 37.2 16.8 56 24.5-.7 3.6-.3 7.3 1 11l8 4c.2 5 2.5 8.3 7 10a48 48 0 0 0 6 12c-.2.6-.5 1-1 1.5 1.5 5.3 2.7 5.4 3.5.5.5 2.3.7 4.6.5 7a11 11 0 0 1 6.5 1 42 42 0 0 0 7 13l.5 5.5c-.6.5-1.3.6-2 .5-12-7.4-24.3-14-37-20l-4-4a7 7 0 0 1 3-2c1.7 2.7 3.3 2.7 5 0 .6 3.3 2.2 4.3 5 3a3 3 0 0 1 1 3c1.6-.2 3.1.1 4.5 1 .5-2.6.7-5.3.5-8h-5a143 143 0 0 0-3.5-16l-1 3a44 44 0 0 0-5-9 9 9 0 0 1-5.5 1v-3c1.6.2 3-.3 4-1.5a7.3 7.3 0 0 0-5-1.5 9.1 9.1 0 0 1-1-5c-4.4-.8-6.9-3.5-7.5-8l-1 2a5.3 5.3 0 0 0-5.5-3.5c1.3-1 1.3-2 0-3-2-.3-3.8-.8-5.5-1.5l-1 1c-1-2-2.3-2.4-4-1l-1-4c-1-.5-2.2-.6-3.5-.5l1-1c-1-.4-1.8-.9-2.5-1.5a45 45 0 0 0-9.5 3.5 11 11 0 0 0-1 6.5 13 13 0 0 1 7 1 19 19 0 0 0-3 5c2.5 2 5.2 4 8 5.5a8 8 0 0 0-2 5.5c-4.7-4.4-9.2-9-13.5-14A831.6 831.6 0 0 0 98.5 139l15 6.5Z" style="opacity:1"/><path fill="#f8f2e4" d="M599.5 179.5c-.1-1.8-.8-2.2-2-1-12.9 20-23.9 41-33 63 0-3.1-.4-3.4-1.5-1-2.4-2.5-1.9-4.1 1.5-5a13 13 0 0 1 5.5-12c0-5 .7-10 2.5-15-3.7-.3-7.4 0-11 1a29 29 0 0 0-1.5 4c-.4-.5-1-.8-1.5-1-1 1.2-2.4 2-4 2.5-1.6 4.1-4.6 6-9 5.5.2 2.7 0 5.4-.5 8l-6 4c-.7 2-1.8 3.7-3.5 5h4c-.8 1-1.8 1.6-3 2-.6 2.4-1.6 4.6-3 6.5-3.4-.3-5 1.2-5 4.5-1-.1-2 0-3 .5 1.2.7 1.2 1.2 0 1.5-2-2-4-2.1-6-.5-3 2.4-2.6 3.9 1 4.5l7.5-2c7.5 1.1 15 1.3 22.5.5a39 39 0 0 0 4.5-4.5l1 1a9.7 9.7 0 0 1 6.5-4l-3 8-46 9.5c-9.8 2.5-19 6.3-27.5 11.5-1-5.4 0-10.4 3-15 7.7-4.8 15.2-9.8 22.5-15a1220 1220 0 0 0 33-26.5c17.8-18.5 37.4-34 59-46.5a17 17 0 0 0-4 6Z" style="opacity:1"/><path fill="#93794f" d="M309.5 188.5c-.3 2.9 0 5.6 1 8a147 147 0 0 1-5 24.5l1 2.5c2.8-1.4 5.8-2.1 9-2 .7-.1 1.4 0 2 .5-1.4 1.7-2.9 2.2-4.5 1.5-1.7.7-3.6 1.2-5.5 1.5-2.3 2.5-5 4.5-8 6 2 .5 4 0 5.5-1.5 1.7.2 1.9.8.5 2a113 113 0 0 0-37 21 7 7 0 0 0-4 2 7.7 7.7 0 0 0-4-.5 152.5 152.5 0 0 0-47 63.5c0-2.5.3-5 1-7.5a7 7 0 0 0-2-3.5l11-18c-4.6-1-9.3-1.3-14-1l10-2c2.1.3 4.1 0 6-1 2.6-4.2 5.2-8.4 8-12.5-.9-1-1.9-1.9-3-2.5.3-.8 1-1.2 2-1 1.5.8 3.2 1.1 5 1 .3-1.5 0-2.8-1-4l-43-26c12.7 6 25 12.6 37 20a47 47 0 0 0 6 4.5c5.3-.4 6.3-3 3-7.5-.2-1 .2-1.7 1-2l3 4c3.7-2.7 7-5.7 10-9v-1c2.4.3 4-.7 5-3a370 370 0 0 1-12-24.5c.1-1.7.6-1.9 1.5-.5a71.4 71.4 0 0 0 15.5 23l1-1.5a73 73 0 0 0-7-9.5c0-.7.3-1 1-1 2.7 3.8 6.2 6.8 10.5 9 5.5-3.7 11-7 16.5-10 1-1.3 2.2-1.3 3.5 0 .7-.5 1.2-1.2 1.5-2 3.4-.9 6.8-2 10-3.5.6-.8 1.1-1.6 1.5-2.5a345 345 0 0 0 7.5-34Z" style="opacity:1"/><path fill="#8c8064" d="M599.5 179.5a396 396 0 0 0-23.5 40 762.4 762.4 0 0 1-14.5 34c.6.8 1.4.8 2.5 0 1-.3 1.5-1 1.5-2 .9.7 1.2 1.7 1 3 2-.3 3.6 0 5 1-2.3.7-4.6 1-7 1-5.8 2.6-10.3 7-13.5 13a378.3 378.3 0 0 1-51.5 41 21 21 0 0 1 2 7c.8 1.9 1.8 3.5 3 5 .3.8 1 1.2 2 1 0 1-.4 2-1 3 2.4 1.6 5.1 2.2 8 2 3.7.2 7.3.6 11 1-2.1 1-4.4 1.3-7 1-4-.3-8-.5-12-.5a96 96 0 0 0 5 16.5v3c-.6 5.5-.6 11.2 0 17l1 2v16l-2.5-3c-.9-18.3-4-36.3-9.5-54 .9.1 1.5-.2 2-1a139.4 139.4 0 0 0-55-82c2.7-.8 5.4-1.8 8-3a42 42 0 0 0 19-14c1.3 0 2 .7 2 2-7 6.8-15 12.2-24 16a315 315 0 0 0 15 13.5c1.4.6 2.8.4 4-.5.7 0 1 .3 1 1-1.3 1-2 2.3-2 4 7 0 13.7-1.4 20-4.5l21-13.5c.7 0 1 .3 1 1a537.3 537.3 0 0 1-22.5 15c-3 4.6-4 9.6-3 15 8.5-5.2 17.7-9 27.5-11.5l46-9.5 3-8c1.2-1.8 1.9-3.8 2-6 9.1-22 20.1-43 33-63 1.2-1.2 1.9-.8 2 1Z" style="opacity:1"/><path fill="#f7f2ea" d="M534.5 290.5c-.5 0-.9-.4-1-1a324 324 0 0 0 30.5-30c.5-1 .6-2 .5-3 2.4 0 4.7-.3 7-1a281 281 0 0 1 40-.5 4092 4092 0 0 1 49 6l21 1a603 603 0 0 0-23 8c-27 2.3-54 5.3-81 9-14.7 2.7-29 6.5-43 11.5Z" style="opacity:1"/><path fill="#ead7bb" d="M230.5 269.5c1.1.6 2.1 1.5 3 2.5-2.8 4.1-5.4 8.3-8 12.5a9.9 9.9 0 0 1-6 1h-7c-.6-3 .6-5 3.5-6 1-2.3 1.8-4.6 2.5-7a32 32 0 0 1-4-2.5l2-1c-7-1.8-14-3.8-21-6-1.2-.5-2-1.3-2.5-2.5h-25.5c-1.4.5-2 1.5-2 3a129 129 0 0 1-11-8.5 161 161 0 0 1 63 8c4.6 1.7 9 3.8 13 6.5Z" style="opacity:1"/><path fill="#ae9774" d="M264.5 254.5c-12 10.7-23 22.3-33 35 0-.4-.1-.8-.5-1a148.1 148.1 0 0 0-20.5 108c-.7-.4-1.2-1-1.5-2-.5.6-.6 1.3-.5 2-1.3-5-2.5-10-3.5-15a143.9 143.9 0 0 1 1-42c2-7.7 4.4-15 7.5-22 9.3-24.2 25-45.3 47-63.5a8 8 0 0 1 4 .5Z" style="opacity:1"/><path fill="#f4e4d4" d="M212.5 285.5c-5 0-9.6-1.2-14-3.5-6.7-3.9-13.7-7.2-21-10-3.9-3-7.9-6-12-8.5 0-1.5.6-2.5 2-3H193c.5 1.2 1.3 2 2.5 2.5 7 2.2 14 4.2 21 6l-2 1a32 32 0 0 0 4 2.5c-.7 2.4-1.5 4.7-2.5 7-3 1-4 3-3.5 6Z" style="opacity:1"/><path fill="#f2e9c9" d="M484.5 262.5c.6.2 1 .7 1 1.5-1 3.5-2.3 7-3.5 10.5a42.3 42.3 0 0 1-6.5-8.5c3.2-1 6.2-2.2 9-3.5Z" style="opacity:1"/><path fill="#d1ba95" d="M412.5 227.5c12.3 4 23.6 9.6 34 17a139.4 139.4 0 0 1 55 82c-.5.8-1.1 1.1-2 1-4.3-15-10.5-29.4-18.5-43l-.5 1.5c12.5 22.2 20.7 46 24.5 71.5a133 133 0 0 1-3.5 45c.3-16 0-32-1-48a356.4 356.4 0 0 0-9-32c-1.3-10-5.2-19-11.5-27-1.1-5-3.1-9.8-6-14a512.9 512.9 0 0 0-26.5-27.5c-7.2-6-14.9-11.2-23-15.5.9.1 1.5-.2 2-1a258 258 0 0 0-18-9.5c1-1.5 2.4-1.7 4-.5Z" style="opacity:1"/><path fill="#c9c1aa" d="M564.5 256.5c.1 1 0 2-.5 3a324 324 0 0 1-30.5 30c.1.6.5 1 1 1a33.5 33.5 0 0 1-7 3c5.3-5.5 11-10.9 17-16 1-1 1-1.6 0-2 2-2.1 4.2-4.1 6.5-6 3.2-6 7.7-10.4 13.5-13Z" style="opacity:1"/><path fill="#dcd1b7" d="M553.5 262.5a257.8 257.8 0 0 0-60 15.5 16 16 0 0 0-6 5.5c-1.1-1.1-1.3-2.4-.5-4a45 45 0 0 1 21.5-11.5c16-3.7 32-6.7 48-9a7.5 7.5 0 0 1-3 3.5Z" style="opacity:1"/><path fill="#f8f3e7" d="M553.5 262.5c-4 5.6-8.7 10.7-14 15.5-6.3 4.6-12.3 9.6-18 15a266 266 0 0 1-19 13c-1.8.8-3.4.6-5-.5-3-7.6-6.3-15-10-22a16 16 0 0 1 6-5.5 257.8 257.8 0 0 1 60-15.5Z" style="opacity:1"/><path fill="#e9d7bc" d="M202.5 296.5c3.4 3.2 6.2 6.9 8.5 11a11 11 0 0 1-.5 8 28.6 28.6 0 0 0-15-13 91.3 91.3 0 0 0-22-10 493 493 0 0 1 11.5-2l.5-1-3-2c.2-.6.5-1 1-1.5-2-.8-4-1.3-6-1.5a3 3 0 0 0-1-3c-2.4-.5-4.4-1.7-6-3.5-6-1.7-11.6-3.9-17-6.5a3 3 0 0 0-1-3c-3.7-2.4-7.4-5-11-7.5-6.2-.4-12.2-1.2-18-2.5-4.7.5-9.3.7-14 .5 9.5-1.6 9.9-2.4 1-2.5 2.5-.8 5.1-1.3 8-1.5 11-.7 22-.7 33 0 11.8 8.4 23.5 17 35 26 5.9 4.7 11.2 9.9 16 15.5Z" style="opacity:1"/><path fill="#a09984" d="M65.5 280.5a52 52 0 0 1 7 4.5c10.2 9.4 20.2 18.9 30 28.5a289 289 0 0 1-37-33Z" style="opacity:.969"/><path fill="#f4e9da" d="M106.5 288.5c0 1 .2 1.8 1 2.5-1.5.6-2.8 1.4-4 2.5 4.5 3.7 9.8 7.2 16 10.5 1.3.7 1.3 1.3 0 2 1.7 1 3 2.3 4 4 7.6 4.9 14.8 10 21.5 15.5l1 7a10 10 0 0 0 3.5 1.5 38 38 0 0 1-7 2.5c.9.8 1.9 1.3 3 1.5 1.2.7 1.2 1.2 0 1.5-5.9-2-11.6-4.5-17-7.5-8.8-6-17.5-12.2-26-18.5-9.8-9.6-19.8-19.1-30-28.5a43.8 43.8 0 0 0-7-4.5c-4-4.5-8.7-8.4-14-11.5-1.2-.7-1.2-1.2 0-1.5a1308 1308 0 0 0 46 15.5c2.5 2.7 5.5 4.5 9 5.5Z" style="opacity:1"/><path fill="#8a7c64" d="M143.5 244.5a401 401 0 0 0 7 6.5 375 375 0 0 1 59 7c8 3 15.7 6.5 23 10.5-1-.2-1.7.2-2 1-4-2.7-8.4-4.8-13-6.5a161 161 0 0 0-63-8c3.5 3 7.2 5.9 11 8.5 4.1 2.6 8.1 5.4 12 8.5 7.3 2.8 14.3 6.1 21 10 4.4 2.3 9 3.5 14 3.5h7l-10 2c-8.6-2.6-16.8-6.3-24.5-11-.7.7-.7 1.3 0 2a90 90 0 0 1 18.5 17c-.7 0-1 .3-1 1a117.5 117.5 0 0 0-16-15.5c-11.5-9-23.2-17.6-35-26-11-.7-22-.7-33 0a393.2 393.2 0 0 1-51 8c34.8 11.7 70.1 21.5 106 29.5a91.3 91.3 0 0 1 22 10c-.7 0-1 .3-1 1-8-4-16.4-7.5-25-10.5a751 751 0 0 1-104-29 867.1 867.1 0 0 0-35-6c14 5.8 28.3 10.8 43 15 13.5 4.6 26.9 9.5 40 14.5-3-.8-6-1.3-9-1.5a68 68 0 0 1 10 5.5c-2.9-.4-5.5-1.4-8-3-3.5-1-6.5-2.8-9-5.5a1308 1308 0 0 1-46-15.5c-1.2.3-1.2.8 0 1.5 5.3 3.1 10 7 14 11.5-7.1-4.6-14.1-9.4-21-14.5l-26-12c-1.2-.7-1.2-1.2 0-1.5a371 371 0 0 0 36 7.5c19 1 37.7-1 56-6 12.3-1.4 24.6-2.6 37-3.5-2-1.4-3.7-3-5-5 0-.7.3-1 1-1Z" style="opacity:1"/><path fill="#f5e7da" d="M110.5 256.5c8.9.1 8.5 1-1 2.5 4.7.2 9.3 0 14-.5 5.8 1.3 11.8 2.1 18 2.5 3.6 2.6 7.3 5 11 7.5a3 3 0 0 1 1 3c5.4 2.6 11 4.8 17 6.5 1.6 1.8 3.6 3 6 3.5a3 3 0 0 1 1 3c2 .2 4 .7 6 1.5-.5.4-.8 1-1 1.5l3 2-.5 1-11.5 2c-35.9-8-71.2-17.8-106-29.5 14.5-1.4 28.8-3.5 43-6.5Z" style="opacity:1"/><path fill="#eddcc3" d="M209.5 287.5c4.7-.3 9.4 0 14 1l-11 18c-2.3-4.3-5.3-8-9-11a90 90 0 0 0-18.5-17c-.7-.7-.7-1.3 0-2 7.7 4.7 15.9 8.4 24.5 11Z" style="opacity:1"/><path fill="#f0e8d0" d="M544.5 275.5c1 .4 1 1 0 2-6 5.1-11.7 10.5-17 16a89.4 89.4 0 0 0-26 24 21 21 0 0 0-2-7 378.3 378.3 0 0 0 45-35Z" style="opacity:1"/><path fill="#f1e3cf" d="M194.5 303.5a22.5 22.5 0 0 1 13 14c-2 6.7-6.7 10-14 10a36 36 0 0 1-17-4.5 555.4 555.4 0 0 0-26-16.5c-5-4.5-10.7-8-17-10.5a18.8 18.8 0 0 1-4.5-5.5 7 7 0 0 1-2.5 2c-4-2.5-8.3-4.2-13-5-13.1-5-26.5-9.9-40-14.5-14.7-4.2-29-9.2-43-15a1114 1114 0 0 1 35 6 751 751 0 0 0 104 29c8.6 3 17 6.5 25 10.5Z" style="opacity:1"/><path fill="#f7f2ea" d="M506.5 323.5c-1 .2-1.7-.2-2-1-.3-2.8.2-5.5 1.5-8 9-9.8 19.6-17.6 31.5-23.5a464.4 464.4 0 0 1 115-18 220.1 220.1 0 0 0-54 32c-5.7 3.5-11.7 6.5-18 9a202 202 0 0 1-74 9.5Z" style="opacity:1"/><path fill="#fbf5f6" d="M609.5 279.5c3.4-.7 5.7.5 7 3.5a4.6 4.6 0 0 0-2 4.5c-3.5 0-5.6 1.6-6.5 5-2-.5-3.7-1.5-5-3a7.1 7.1 0 0 1-6.5 2c.2 2 0 4-.5 6-1-.8-2.2-1.2-3.5-1 .3 3.3 0 6.4-1 9.5-3.3-1.5-6.8-2-10.5-1.5-2.2 3-5.5 5.4-10 7-1.8-.4-1.6-1 .5-1.5-1.7-.2-3.4-.2-5 0l3-2.5a8.8 8.8 0 0 0-8-3c.3-1.8-.4-3.2-2-4-4.5 3-9.5 4.7-15 5 1 3.7 2.7 4 5 1 1.2.4 2.2 1 3 2l2-2c2 2.6 3.8 2.6 5.5 0 .2 2.3.7 4.5 1.5 6.5a19 19 0 0 1-12-1.5 18.4 18.4 0 0 1-9 2v4h-3v-4h-5v4c-2.5-.8-5-1.8-7.5-3a6.5 6.5 0 0 0-3 3l-1-2a10.6 10.6 0 0 1-7.5 2 9 9 0 0 1 1-5.5 38 38 0 0 0 15-6.5c-.2-.6-.5-1-1-1.5 1.4-.6 2.7-.4 4 .5 3.3-3 7-5 11-6-.2-1.3.2-2.5 1-3.5a144 144 0 0 0 13-3c1.8-1 3.4-2.2 5-3.5 13.7-1.5 27.4-3.5 41-6 3.4 1.8 5.4.8 6-3Z" style="opacity:1"/><path fill="#e2d4b9" d="M113.5 287.5c4.7.8 9 2.5 13 5a7 7 0 0 0 2.5-2 17 17 0 0 0 4.5 5.5c6.3 2.5 12 6 17 10.5a105 105 0 0 0 37 22.5c3.2.8 6.2.6 9-.5a73 73 0 0 0 10-2.5c-2 4.1-3.8 8.3-5.5 12.5a10.6 10.6 0 0 1-7.5 2c-3.9-4-8.2-7.5-13-10.5a939.8 939.8 0 0 0-61-37 8.8 8.8 0 0 0-5-1.5 68 68 0 0 0-10-5.5c3 .2 6 .7 9 1.5Z" style="opacity:1"/><path fill="#fbf2eb" d="M487.5 319.5c.7 0 1 .3 1 1a141 141 0 0 0 6.5 28c0 9 1.3 17.7 3.5 26-1 11.4-2.5 22.7-4.5 34-2.8 2.6-3.3 5.6-1.5 9a63 63 0 0 1-3 10.5c1.7 2.6 1 4.4-2 5.5-.7 3.2-1.9 6.2-3.5 9-.7 1.1-1.6 1.1-2.5 0a13 13 0 0 0-1 7 3 3 0 0 0-3 1c-2.6 3.4-4.9 6.9-7 10.5.5.4.8 1 1 1.5l-7 5c1.8-4.5 3.1-9.2 4-14h4v-4h3c.4-4.3 2.4-7.8 6-10.5-1.7-5-2-10.3-1-15.5a4.5 4.5 0 0 0-2-1.5c-.2-2.2.5-4.4 2-6.5h3c-.2-2 0-4 .5-6 2.5-1.6 4.3-3.8 5.5-6.5-.2-2-1.2-3.1-3-3.5a78.9 78.9 0 0 1 4-27c-.6-4-.6-8.2 0-12.5l-.5-7.5c-2.5-5.7-4-11.7-4.5-18a20 20 0 0 0-3.5-7 25 25 0 0 1-.5-7 64.6 64.6 0 0 1-8.5-6 8.9 8.9 0 0 0-5-8c-1.3 3.9-2.5 3.9-3.5 0v-14c-4-1.9-7.4-4.7-10-8.5.3-3.3-1.2-5.8-4.5-7.5-.8-2-.3-3.4 1.5-4.5-7.2-2-13.2-6-18-12-4-2.6-8-4.2-12-5-1.3-.7-1.3-1.3 0-2-5.2-.4-9.5-2.4-13-6-4.6-.6-8.6-2.5-12-5.5-6.7-.8-13.3-1.5-20-2 0-2.8-1.6-4.1-4.5-4-5 .6-9.7 1.6-14.5 3-2.2.2-4-.5-5.5-2a49 49 0 0 1-22.5 4c-.8 3-2.8 4.8-6 5.5-4.7-.5-8.6 1-11.5 4.5-3.5.3-6 2-7.5 5l-10 2c-5.7 3.4-11.4 6.9-17 10.5a20 20 0 0 0-13 9.5l-2-1a9.7 9.7 0 0 0-1.5 4c-2.4 1.8-5 3.5-7.5 5 .2.6.5 1 1 1.5a10.1 10.1 0 0 1-6 1.5c-.9 2.9-2.2 5.5-4 8 1.5 2.5 2.2 5.1 2 8a9.2 9.2 0 0 0-2 8c-1.6-.1-2.8.5-3.5 2a4.3 4.3 0 0 0-4.5-2c.1 2.6-.6 4.9-2 7-1.3-1.4-2.2-1-2.5 1-1.7 4.6-2 9.3-1 14a5.8 5.8 0 0 1-5.5 2v16h4v8h3v8c-2.3-.5-4.5-.5-6.5 0-1 11-1.4 22-1.5 33 .2.6.5 1 1 1.5 2.6.5 5.3.7 8 .5-.5 4-.9 8-1 12l6 1c-.3 1.8 0 3.5 1 5a94 94 0 0 0 1.5-13c.5 2.3.7 4.6.5 7 1.3-.2 2.5.2 3.5 1 .2 2.7.7 5.4 1.5 8 1.3 1.3 2.7 1.3 4 0l1 3c-.9 1.6-1.4 3.2-1.5 5 1.8-1.3 3.6-1.3 5.5 0l2 7.5c2.6.5 5.3.7 8 .5a13 13 0 0 0 1 7c1.3 2 2.3 4.2 3 6.5-.2 1.4-.9 2.2-2 2.5-1.5-2.3-2.2-5-2-8h-5a18 18 0 0 1-2 10.5c2.8 1.8 2.7 3.3-.5 4.5a25 25 0 0 1-.5-7c-4.5.6-7.9-1-10-5 3.4-1.6 6.2-1 8.5 2 2.1-2 2-4-.5-5.5-4.2 1.1-8.2.6-12-1.5-2.2.9-4.6 1.2-7 1a20.5 20.5 0 0 1 6-15.5 288 288 0 0 1-14-14.5 8 8 0 0 0-4-1 260 260 0 0 1-9-58c.1-5.3.4-10.7 1-16 .2-1.9.9-3.6 2-5l-2-5.5c5.9-6.7 8.9-5.6 9 3.5h3c-.9-5.1-.6-10.3 1-15.5l-2-1a19 19 0 0 0 4-3.5c1.2-1.2 1.2-2.4 0-3.5 3.6-2.8 5.1-6.3 4.5-10.5.4-2.2 1.4-2.8 3-2 2-3.3 3-7 2.5-11 1.5.3 2.8 0 4-1 1-2.4 2.3-4.6 4-6.5 5.6-.4 9.9-3 13-7.5a3 3 0 0 1 3-1c-.2-1.4 0-2.7.5-4l1 2c1-1.9 2.5-3.2 4.5-4a67.6 67.6 0 0 1 17-6v-4c-.2-2 .2-4 1-6 2.3-.8 4.6-1.4 7-2 2 1.1 3.8.8 5.5-1 2.7 1.3 3.9.3 3.5-3l8-1v-3a75 75 0 0 0 17-2.5 22 22 0 0 1 11-4c7.1-1 14.3-2 21.5-2.5 4.9 1.2 9.9 1.2 15 0 7.3 3.3 15 6 23 8l1-2c.5 2.4 1.7 3 3.5 2 2.7 1 5 2.5 7 4.5a24 24 0 0 1 16 9c3.2 1.7 6.5 3.2 10 4.5 1.4 3 3.4 5.4 6 7.5a21 21 0 0 1 9.5 6.5c2 3.9 5.2 6.5 9.5 8 2.3 4 5 7.8 8.5 11 1 5.4 3.3 10 7 14 .7-1.3 1.3-1.3 2 0 1.2 6 3.4 11 6.5 15Z" style="opacity:1"/><path fill="#fcfbfa" d="m486.5 399.5-2-23a132 132 0 0 0-2.5 16c-.5-2.6-.7-5.3-.5-8h-5v8c-1-.1-2 0-3 .5 2.6.5 5.3.7 8 .5v3l-16 1v3h5v8h3v-10a25 25 0 0 1 7 .5c1.3 1.6 1.2 3.1-.5 4.5-1-2-2.4-3-4.5-3 .2 3.4 0 6.7-.5 10a20 20 0 0 1-4.5.5c-1.2.5-2 1.3-2.5 2.5a61 61 0 0 0-.5 11h4v3h-5c.1-1 0-2-.5-3a45.8 45.8 0 0 0-9 13l-3.5-5-3.5 5-1 13c-.5-5-.7-10-.5-15h-6c.2 4.3 0 8.7-.5 13a13 13 0 0 1-.5-5h-8a13 13 0 0 1 .5-5c1.5 1.8 3.3 2.3 5.5 1.5a15 15 0 0 0 3-6.5c2.5-1.4 4.7-1.1 6.5 1 .5-1.6.7-3.3.5-5h-16c-.1 1.6.5 2.8 2 3.5a4.6 4.6 0 0 0-2 4.5h-8v6h-8v-3h5l-2-16h-4v8h-6c-.3-10.7-.7-10.7-1 0h-8c-.5-3.6.2-7 2-10-2.6-1.6-2.6-3.1 0-4.5 2.2 0 4.2-.2 6-.5-4-1-8-1.3-12-1v8h-3v-8h-20c-.7-10.7-1.3-10.7-2 0a13 13 0 0 0-5 .5c1.7 1.1 2.2 2.6 1.5 4.5-4.1-4-6.6-3-7.5 3h-8v-8c2.7-.9 5.4-1.2 8-1-2.7-2-2.7-4 0-6l-2-9c-.8.7-1.5 1.6-2 2.5.7 2 1 4 1 6-1.2.3-2.2-.2-3-1.5a3 3 0 0 0-2 2c1.9 1.4 2.2 3.1 1 5-3-1-6-1.2-9-1v-7a3 3 0 0 0 3-1c-1.2-1.2-2.3-1.2-3.5 0l-3.5-5-3.5 5a13 13 0 0 1-.5-5h-8c-.3 10.7-.7 10.7-1 0h-3l-1 16h-3c0-4 .7-8 2-12-1-5-2.3-9.8-4-14.5a4 4 0 0 1 1-2c3-.5 6-.7 9-.5v-6h-8c-1 4.5-3.4 5.5-7 3v7c-3 1-6 1.2-9 1-.3-2.7 0-5.4 1-8 2.6-1 5-2.3 7-4a14.4 14.4 0 0 0-6-3.5c2.4-.3 3-1.3 2-3-2.7-.7-5.3-.7-8 0a4 4 0 0 1-4 2.5 26 26 0 0 0-1-10c-.6.2-1 .5-1.5 1-.4 4.4-1.3 8.7-2.5 13 .2 1.9.9 3.6 2 5a4.6 4.6 0 0 1-5 2l-.5-27c1.7-.8 3-.1 4 2a9.3 9.3 0 0 1 3.5-6c-1.5-2.3-2.8-2-4 1l-2.5-3a8.2 8.2 0 0 0-2.5 6h-4c0-1.8-.5-3.5-1.5-5 0 4.3.2 8.6.5 13h-9a46 46 0 0 1-4-16c-1 2.6-1.3 5.3-1 8h-5c-.3 1.7-.5 3.4-.5 5 1-.8 1.6-1.8 2-3 .8 2 2 4 3.5 5.5-1 .7-1.1 1.6-.5 2.5a4.6 4.6 0 0 1 4.5-2 36 36 0 0 1 0 16c-.4-1-1-1-2 0-.9 1.4-1.9 2.8-3 4 .8.7 1.5 1.6 2 2.5a33 33 0 0 0-3 9c1.1 2 .5 3.6-2 4.5l2 1c-1 2.6-.8 5.1 1 7.5-.5 2-1.9 2.9-4 2.5a159 159 0 0 0-1-20.5l.5-6.5c.9 1.4 1.4 1.2 1.5-.5-1.5-2.9-3.7-5-6.5-6.5 0-4.9-.8-9.6-2.5-14l2-32a8 8 0 0 1 4 1c1-5.6 1.3-11.3 1-17h4v-7c-7.1-.1-10.1-3.8-9-11h8v-5h-3v-8h3v3h7c.4-3.8-.2-7.3-2-10.5 2.7-3.8 2-4.3-2-1.5a29 29 0 0 0-5 8h-6v9a23.1 23.1 0 0 1-8 2v6h-3c.2-2.9-.5-5.5-2-8 1.8-2.5 3.1-5.1 4-8 2.2.1 4.2-.4 6-1.5-.5-.4-.8-1-1-1.5 2.6-1.5 5-3.2 7.5-5 .2-1.4.7-2.8 1.5-4l2 1c3-5 7.4-8.2 13-9.5 5.6-3.6 11.3-7.1 17-10.5l10-2c1.5-3 4-4.7 7.5-5 3-3.5 6.8-5 11.5-4.5a7.4 7.4 0 0 0 6-5.5 49 49 0 0 0 22.5-4 6.6 6.6 0 0 0 5.5 2 91 91 0 0 1 14.5-3c3-.1 4.4 1.2 4.5 4 6.7.5 13.3 1.2 20 2 3.4 3 7.4 4.9 12 5.5 3.5 3.6 7.8 5.6 13 6-1.3.7-1.3 1.3 0 2 4 .8 8 2.4 12 5 4.8 6 10.8 10 18 12-1.8 1-2.3 2.6-1.5 4.5 3.3 1.7 4.8 4.2 4.5 7.5 2.6 3.8 6 6.6 10 8.5v14c1 3.9 2.2 3.9 3.5 0a8.9 8.9 0 0 1 5 8 66 66 0 0 0 8.5 6 25 25 0 0 0 .5 7 20 20 0 0 1 3.5 7c.5 6.3 2 12.3 4.5 18l.5 7.5c-.6 4.3-.6 8.5 0 12.5a78.9 78.9 0 0 0-4 27Z" style="opacity:1"/><path fill="#faf1f0" d="M272.5 384.5c.4 3.7 1 7.4 2 11 1.5-1.6 2.5-3.6 3-6 .4 3 1.7 5.3 4 7-3 2-3.7 4.7-2 8 1.7 2 2.9 4.4 3.5 7 2 2.8 2.7 2.5 2.5-1h3a13 13 0 0 0 .5 5c.3-.8.8-1.5 1.5-2 2.7 1.8 5.7 2.8 9 3 .4 4-.3 7.9-2 11.5a13 13 0 0 0 2 4.5c1.3-2.5 2.5-2.5 3.5 0 .5 2.6.7 5.3.5 8h-6v3c-2.7-.3-5.4 0-8 1 5 1.3 10 2.5 15 3.5.8 1 1.2 2.2 1 3.5 5-.5 10-1.2 15-2v3c3 .5 6 .8 9 1v3h7a25 25 0 0 0 .5 7c1 1.3 2 1.3 3 0 .5-2.3.7-4.6.5-7h4l1 14a6 6 0 0 0 6.5-3c1.2 1 1.7 2.4 1.5 4a13 13 0 0 1 5 .5c-.8.3-1.5.8-2 1.5a6 6 0 0 0 5 2c-.2 4.5.5 4.9 2 1l2 3c.4-1.5.5-3.2.5-5 .5 1.2 1.3 2 2.5 2.5-.5.4-.8 1-1 1.5 1.4 1 2 2.4 2 4 2.7.3 5.4 0 8-1a6.8 6.8 0 0 0-3-1.5c3.7-4.6 7.7-5.1 12-1.5.5-2.8 2.2-4.2 5-4v-10h3c.2 3.2-.1 6.4-1 9.5 1 2.1 2.3 4 4 5.5a8 8 0 0 0 3-3.5l8.5-.5c8.1 1.3 16.3 2 24.5 2v-5a24 24 0 0 0 7-5c1 1.5 1.3 3.2 1 5h8a53 53 0 0 0-1-5.5c0-1.4.5-2.6 1.5-3.5a17 17 0 0 0 4.5 1.5c-2.7 1.7-2.7 3.3 0 5-3.3.8-4.3 2.6-3 5.5a47 47 0 0 1 6.5-5l1-3c1.6.4 3.5.4 5.5 0-2 3.6-5 6.3-9 8-.4 3.2-2 5.4-5 6.5 1 .3 1.6.8 2 1.5a21.6 21.6 0 0 1-5 4l-14 5a3 3 0 0 0-1 3c-3.6-.5-6.6.5-9 3-.6-.2-1-.5-1.5-1-11 7.6-23.2 11-36.5 10v4a74 74 0 0 1-20.5-2 44.5 44.5 0 0 1-14.5 4c-2.6-.2-2.6-.7 0-1.5-4-1.9-8.4-3-13-3.5-1.4-.9-2.8-1.9-4-3-.7.8-1.6 1.5-2.5 2-4.8-3.6-9.8-4-15-1-1.9-.8-2.6-2.1-2-4l1 1c2-.8 4.2-1.3 6.5-1.5-.5-2-.9-4-1-6h-16c1.3-1.7 1.3-3.3 0-5-2.3.2-4.6.2-7 0 1.2-.4 2.2-1 3-2-3.7-.6-7.4-.4-11 .5.3-2-.4-3.5-2-4.5a14 14 0 0 0 1-5 46 46 0 0 0-2-7.5c-12.7 1.6-19-3.8-19-16 1.1-.3 1.8-1.1 2-2.5-.7-2.3-1.7-4.4-3-6.5a13 13 0 0 1-1-7c-2.7.2-5.4 0-8-.5l-2-7.5c-1.9-1.3-3.7-1.3-5.5 0 .1-1.8.6-3.4 1.5-5l-1-3c-1.3 1.3-2.7 1.3-4 0-.8-2.6-1.3-5.3-1.5-8-1-.8-2.2-1.2-3.5-1a25 25 0 0 0-.5-7 94 94 0 0 1-1.5 13 7.1 7.1 0 0 1-1-5l-6-1c.1-4 .5-8 1-12-2.7.2-5.4 0-8-.5-.5-.4-.8-1-1-1.5 0-11 .6-22 1.5-33 2-.5 4.2-.5 6.5 0v-8h-3v-8h-4v-16c2.2.3 4-.3 5.5-2-1-4.7-.7-9.4 1-14 .3-2 1.2-2.4 2.5-1 1.4-2.1 2.1-4.4 2-7 2-.3 3.5.4 4.5 2a3.3 3.3 0 0 1 3.5-2c-.5-3.2.1-5.9 2-8h3v-6c2.8-.2 5.5-.9 8-2v-9h6a29 29 0 0 1 5-8c4-2.8 4.7-2.3 2 1.5 1.8 3.2 2.4 6.7 2 10.5h-7v-3h-3v8h3v5h-8c-1.1 7.2 1.9 10.9 9 11v7h-4c.3 5.7 0 11.4-1 17a8 8 0 0 0-4-1l-2 32c1.7 4.4 2.5 9.1 2.5 14 2.8 1.5 5 3.6 6.5 6.5-.1 1.7-.6 1.9-1.5.5l-.5 6.5c.8 7 1.1 13.8 1 20.5 2.1.4 3.5-.5 4-2.5a7.2 7.2 0 0 1-1-7.5l-2-1c2.5-1 3.1-2.4 2-4.5a33 33 0 0 1 3-9c-.5-1-1.2-1.8-2-2.5 1.1-1.2 2.1-2.6 3-4 1-1 1.6-1 2 0Z" style="opacity:1"/><path fill="#a7997e" d="M150.5 306.5c8.8 5.2 17.4 10.7 26 16.5a36 36 0 0 0 17 4.5c.7.9 1.7 1.2 3 1a14.2 14.2 0 0 1-9 .5 105 105 0 0 1-37-22.5Z" style="opacity:1"/><path fill="#ead5bc" d="m156.5 347.5-16 5a9 9 0 0 0-3-3c.5-.7 1.2-1.2 2-1.5-1.2-.7-2.2-.6-3 .5a77.4 77.4 0 0 1-52-40c0-.5.4-.9 1-1 1 1.2 2 2.5 2.5 4l3-3c.5 1.2 1.3 2 2.5 2.5-1.1.7-1.1 1.6 0 2.5 3.4 2 6 4.7 8 8 3.7 1.6 7.2 3.6 10.5 6 .5 1.3.7 2.6.5 4a77.7 77.7 0 0 1 18 9.5c8.7 1.4 17.3 3.5 26 6.5Z" style="opacity:.714"/><path fill="#f4e9d3" d="M517.5 330.5a13 13 0 0 0 5 1.5 16.1 16.1 0 0 0-12 14.5 96 96 0 0 1-5-16.5c4 0 8 .2 12 .5Z" style="opacity:1"/><path fill="#ead9c0" d="M106.5 288.5c2.5 1.6 5.1 2.6 8 3 26.4 15 52.1 31.4 77 49l1 1a60 60 0 0 1-20 4c-9.7.5-18.7-1.5-27-6 1.2-.3 1.2-.8 0-1.5a6.8 6.8 0 0 1-3-1.5 38 38 0 0 0 7-2.5 11 11 0 0 1-3.5-1.5l-1-7c-6.7-5.5-14-10.6-21.5-15.5a11 11 0 0 0-4-4c1.3-.7 1.3-1.3 0-2a95.2 95.2 0 0 1-16-10.5c1.2-1 2.5-2 4-2.5-.8-.7-1-1.5-1-2.5Z" style="opacity:1"/><path fill="#b0a189" d="M102.5 313.5c8.5 6.3 17.2 12.5 26 18.5 5.4 3 11.1 5.5 17 7.5a49.6 49.6 0 0 0 27 6c-4.2 1-8.5 1.6-13 2a204 204 0 0 1-42-20.5c-5.5-4-10.5-8.6-15-13.5Z" style="opacity:1"/><path fill="#8d8473" d="M524.5 329.5c17.5.7 34.5 3.8 51 9.5 18.7 8.2 37 17.2 55 27 28.4 12.2 58 18.3 89 18.5v2c-28.7 7.3-57.4 15-86 23 2.7-2 5.7-3.5 9-4.5 11-3.3 22-6.5 33-9.5a7622 7622 0 0 1-82-9.5c-15-.7-30-.7-45 0-10.2.7-20.2 2.2-30 4.5l-8-4 1-2a11 11 0 0 0 8.5 3c42-6.2 83.9-5 125.5 3.5 23.2 4.9 46 3.2 68-5-16.1-.9-32.1-2.7-48-5.5.8.8 1.8 1.3 3 1.5-10.3-1-20.7-2-31-3.5l-30-7a268 268 0 0 0-58-10 89.2 89.2 0 0 0-38 7l-1-2a140 140 0 0 1 28-7c-6.8-1-13.4-2.6-20-4.5a22.5 22.5 0 0 1-8-5.5v-3c.8-7.3 4.8-12.1 12-14.5a13 13 0 0 1-5-1.5c2.6.3 4.9 0 7-1Z" style="opacity:.804"/><path fill="#cfb18a" d="M200.5 355.5c0 .5-.4.9-1 1-7.6-4-15.6-7-24-9 6.3-1.4 12.7-2.8 19-4 2-.5 4-1.1 6-2l.5 12c-7.1-2.6-7.3-1.9-.5 2Z" style="opacity:1"/><path fill="#8b7b60" d="M114.5 291.5c1.8 0 3.5.5 5 1.5 20.8 11.6 41.2 24 61 37 4.8 3 9.1 6.5 13 10.5.6.9 1 1.9 1 3-6.3 1.2-12.7 2.6-19 4 8.4 2 16.4 5 24 9 .6-.1 1-.5 1-1 1.1 1.1 1.3 2.4.5 4-.4-1.3-1.3-2-2.5-2a62.4 62.4 0 0 0-37-8c-6.9.6-13.5 2-20 4.5a398.6 398.6 0 0 1-100 27.5c-1.6.3-3 0-4-1 35.6-4.9 70-14.2 103-28l16-5h3c4.5-.4 8.8-1 13-2a60 60 0 0 0 20-4l-1-1a930.1 930.1 0 0 0-77-49Z" style="opacity:.888"/><path fill="#f2e7d4" d="M510.5 349.5c2.2 2.4 4.9 4.2 8 5.5 6.6 2 13.2 3.4 20 4.5a140 140 0 0 0-28 7c-.6-5.8-.6-11.5 0-17Z" style="opacity:1"/><path fill="#f2e3db" d="M173.5 387.5a160 160 0 0 0-17-1c-9-1.4-18-2.4-27-3a45 45 0 0 0-16-3.5l-2-2a30 30 0 0 0-13 .5l-12-2c4.8-1.4 9.8-3 15-5 1.9.5 3.7 1.2 5.5 2 3.3-1.7 6.8-2.9 10.5-3.5 4.3-1.8 8.3-4.2 12-7 11.6-.9 23.1-2.4 34.5-4.5 2 .2 3.8 1 5.5 2 3.1-.9 5.6.1 7.5 3 1.7-.6 3.5-.6 5.5 0 1 7 2.3 14 4 21-3.3-.3-6.1.7-8.5 3a7.4 7.4 0 0 0-4.5 0Z" style="opacity:1"/><path fill="#f4ebde" d="M665.5 380.5c-10-1-20-2.6-30-4.5l-58-14c-17.4-2-34.7-4.4-52-7-13.8-2.6-16.1-8.9-7-19 7-3.3 14.3-4.3 22-3 14.5 1.8 28.5 5.5 42 11 19.2 9 38.2 18.4 57 28 8.6 3.4 17.3 6.2 26 8.5Z" style="opacity:1"/><path fill="#d5bb99" d="M161.5 349.5c13-1.2 25.4 1.5 37 8 1.1 7.6 1.3 15.3.5 23a5 5 0 0 1-2.5 4 51.4 51.4 0 0 0-11-24.5l2-1c-4.3-1-8-3-11-6-5-1-10-1.7-15-2 6.6-.8 6.6-1.3 0-1.5Z" style="opacity:1"/><path fill="#f8f7f7" d="M486.5 399.5c1.8.4 2.8 1.6 3 3.5-1.2 2.7-3 4.9-5.5 6.5-.5 2-.7 4-.5 6h-3a9.8 9.8 0 0 0-2 6.5c.8.3 1.5.8 2 1.5-1 5.2-.7 10.4 1 15.5a14.6 14.6 0 0 0-6 10.5h-3v4h-4c-.9 4.8-2.2 9.5-4 14-2 .4-3.9.4-5.5 0l-1 3a47 47 0 0 0-6.5 5c-1.3-3-.3-4.7 3-5.5-2.7-1.7-2.7-3.3 0-5a17 17 0 0 1-4.5-1.5c-1 1-1.5 2.1-1.5 3.5a53 53 0 0 1 1 5.5h-8c.3-1.8 0-3.5-1-5a24 24 0 0 1-7 5v5c-8.2 0-16.4-.7-24.5-2l-8.5.5a7.7 7.7 0 0 1-3 3.5 17 17 0 0 1-4-5.5c.9-3.1 1.2-6.3 1-9.5h-3v10c-2.8-.2-4.5 1.2-5 4-4.3-3.6-8.3-3.1-12 1.5 1.1.2 2.1.7 3 1.5-2.6 1-5.3 1.3-8 1 0-1.6-.6-3-2-4 .2-.6.5-1 1-1.5-1.2-.5-2-1.3-2.5-2.5 0 1.8-.1 3.5-.5 5l-2-3c-1.5 3.9-2.2 3.5-2-1a6 6 0 0 1-5-2c.5-.7 1.2-1.2 2-1.5a13 13 0 0 0-5-.5c.2-1.6-.3-3-1.5-4a6 6 0 0 1-6.5 3l-1-14h-4a25 25 0 0 1-.5 7c-1 1.3-2 1.3-3 0a25 25 0 0 1-.5-7h-7v-3c-3-.2-6-.5-9-1v-3c-5 .8-10 1.5-15 2 .2-1.3-.2-2.5-1-3.5-5-1-10-2.2-15-3.5 2.6-1 5.3-1.3 8-1v-3h6c.2-2.7 0-5.4-.5-8-1-2.5-2.2-2.5-3.5 0a13 13 0 0 1-2-4.5c1.7-3.6 2.4-7.5 2-11.5-3.3-.2-6.3-1.2-9-3-.7.5-1.2 1.2-1.5 2a13 13 0 0 1-.5-5h-3c.2 3.5-.6 3.8-2.5 1-.6-2.6-1.8-5-3.5-7-1.7-3.3-1-6 2-8a9.9 9.9 0 0 1-4-7c-.5 2.4-1.5 4.4-3 6-1-3.6-1.6-7.3-2-11a36 36 0 0 0 0-16c-1.9-.2-3.4.5-4.5 2-.6-1-.5-1.8.5-2.5a15.5 15.5 0 0 1-3.5-5.5c-.4 1.2-1 2.2-2 3 0-1.6.2-3.3.5-5h5c-.3-2.7 0-5.4 1-8a46 46 0 0 0 4 16h9c-.3-4.4-.4-8.7-.5-13 1 1.5 1.5 3.2 1.5 5h4c0-2.3.8-4.3 2.5-6l2.5 3c1.2-3 2.5-3.3 4-1-2 1.5-3 3.5-3.5 6-1-2.1-2.3-2.8-4-2l.5 27c2.2.4 3.8-.3 5-2a9.9 9.9 0 0 1-2-5c1.2-4.3 2-8.6 2.5-13 .4-.5 1-.8 1.5-1a26 26 0 0 1 1 10 4 4 0 0 0 4-2.5c2.7-.7 5.3-.7 8 0 1 1.7.4 2.7-2 3 2.3.7 4.3 1.9 6 3.5a24 24 0 0 1-7 4c-1 2.6-1.3 5.3-1 8 3 .2 6 0 9-1v-7c3.6 2.5 6 1.5 7-3h8v6c-3-.2-6 0-9 .5a4 4 0 0 0-1 2c1.7 4.7 3 9.5 4 14.5-1.3 4-2 8-2 12h3l1-16h3c.3 10.7.7 10.7 1 0h8a13 13 0 0 0 .5 5l3.5-5 3.5 5c1.2-1.2 2.3-1.2 3.5 0a3 3 0 0 1-3 1v7c3-.2 6 0 9 1 1.2-1.9.9-3.6-1-5a3 3 0 0 1 2-2c.8 1.3 1.8 1.8 3 1.5 0-2-.3-4-1-6 .5-1 1.2-1.8 2-2.5l2 9c-2.7 2-2.7 4 0 6-2.6-.2-5.3.1-8 1v8h8c.9-6 3.4-7 7.5-3 .7-1.9.2-3.4-1.5-4.5a13 13 0 0 1 5-.5c.7-10.7 1.3-10.7 2 0h20v8h3v-8c4-.3 8 0 12 1-1.8.3-3.8.4-6 .5-2.6 1.4-2.6 2.9 0 4.5a15 15 0 0 0-2 10h8c.3-10.7.7-10.7 1 0h6v-8h4l2 16h-5v3h8v-6h8c-.2-1.9.5-3.4 2-4.5a3.3 3.3 0 0 1-2-3.5h16a13 13 0 0 1-.5 5c-1.8-2.1-4-2.4-6.5-1-.5 2.4-1.5 4.6-3 6.5-2.2.8-4 .3-5.5-1.5a13 13 0 0 0-.5 5h8a13 13 0 0 0 .5 5c.5-4.3.7-8.7.5-13h6c-.2 5 0 10 .5 15l1-13 3.5-5 3.5 5c2.3-4.9 5.3-9.2 9-13 .5 1 .6 2 .5 3h5v-3h-4a61 61 0 0 1 .5-11c.5-1.2 1.3-2 2.5-2.5a20 20 0 0 0 4.5-.5c.5-3.3.7-6.6.5-10 2 0 3.6 1 4.5 3 1.7-1.4 1.8-2.9.5-4.5a25 25 0 0 0-7-.5v10h-3v-8h-5v-3l16-1v-3c-2.7.2-5.4 0-8-.5 1-.5 2-.6 3-.5v-8h5c-.2 2.7 0 5.4.5 8a132 132 0 0 1 2.5-16l2 23Z" style="opacity:1"/><path fill="#edddca" d="M161.5 349.5c6.6.2 6.6.7 0 1.5 5 .3 10 1 15 2 3 3 6.7 5 11 6l-2 1a51.4 51.4 0 0 1 11 24.5c-2 3.2-5 4.5-9 4-4.9.3-9.5 0-14-1a7 7 0 0 1 4.5 0c2.4-2.3 5.2-3.3 8.5-3-1.7-7-3-14-4-21-2-.6-3.8-.6-5.5 0-1.9-2.9-4.4-3.9-7.5-3-1.7-1-3.5-1.8-5.5-2a313.8 313.8 0 0 1-34.5 4.5 53.5 53.5 0 0 1-12 7c-3.7.6-7.2 1.8-10.5 3.5-1.8-.8-3.6-1.5-5.5-2-5.2 2-10.2 3.6-15 5l12 2a30 30 0 0 1 13-.5l2 2a45 45 0 0 1 16 3.5c-18-1.6-36-3-54-4a73 73 0 0 0-18 2c-5.5.7-10.8.7-16 0 34.5-4.8 67.8-14 100-27.5 6.5-2.4 13.1-4 20-4.5Z" style="opacity:1"/><path fill="#f3e9dc" d="M140.5 352.5a410.8 410.8 0 0 1-103 28c-1.6-.3-3 0-4 1-11.4 1.2-22.7 2.5-34 4v-4c33.8-3.5 67.1-9.7 100-18.5a2176 2176 0 0 0 37-14.5c.8-1 1.8-1.2 3-.5-.8.3-1.5.8-2 1.5a9 9 0 0 1 3 3Z" style="opacity:.325"/><path fill="#f7eeeb" d="m607.5 371.5 30 7c2.8 1.6 6.5 2.7 11 3.5l-2 1c2.7.3 5.4.8 8 1.5 1.7-1.2 3.4-1.2 5 0-.5.7-1.2 1.2-2 1.5l4 1c-6.7.7-13.3.7-20 0a105 105 0 0 0-32-3.5v-3c-25-.9-50.1-.9-75.5 0-3-.4-5.5.5-7.5 2.5-2.3.2-4.4.7-6.5 1.5a12.4 12.4 0 0 1-6.5-12c2 0 3.4-1 4-3 4.1-.4 8-1.4 11.5-3 .3.8.8 1.5 1.5 2 3.8-.9 7.4-1.9 11-3 14 0 27.6 2 41 6h25Z" style="opacity:1"/><path fill="#b4a794" d="M33.5 381.5c1-1 2.4-1.3 4-1 1 1 2.4 1.3 4 1 5.2.7 10.5.7 16 0-8.7 2.2-17.7 3.5-27 4a5 5 0 0 1-3-1c2.8-1.3 5.8-2 9-2.5a5 5 0 0 0-3-.5Z" style="opacity:.969"/><path fill="#f2eadd" d="M607.5 371.5h-25c-13.4-4-27-6-41-6-3.6 1.1-7.2 2.1-11 3a4.5 4.5 0 0 1-1.5-2 38.4 38.4 0 0 1-11.5 3c-.6 2-2 3-4 3-.3 5.3 1.9 9.3 6.5 12 2-.8 4.2-1.3 6.5-1.5 2-2 4.5-2.9 7.5-2.5 25.4-.9 50.6-.9 75.5 0v3c11-.5 21.6.7 32 3.5 6.7.7 13.3.7 20 0l-4-1c.8-.3 1.5-.8 2-1.5-1.6-1.2-3.3-1.2-5 0-2.6-.7-5.3-1.2-8-1.5l2-1c-4.5-.8-8.2-2-11-3.5a653 653 0 0 0 31 3.5 5.5 5.5 0 0 1-3-1.5c15.9 2.8 31.9 4.6 48 5.5-22 8.2-44.8 9.9-68 5a356.9 356.9 0 0 0-125.5-3.5 11 11 0 0 1-8.5-3v-16a89.2 89.2 0 0 1 38-7 268 268 0 0 1 58 10Z" style="opacity:1"/><path fill="#7f7464" d="M33.5 381.5c1-.1 2 0 3 .5a30 30 0 0 0-9 2.5l-15 1.5c4.6.1 9 1 13 2.5h-26v-3c11.3-1.5 22.6-2.8 34-4Z" style="opacity:.804"/><path fill="#efe1d3" d="M57.5 381.5c37.7-.2 75 3.1 112 10l33 13.5c-16.4 3.2-32.7 6.5-49 10-8.6 1.2-17.3 1.7-26 1.5a273 273 0 0 1-22-6.5 229 229 0 0 0-80-21.5c-4-1.5-8.4-2.4-13-2.5l15-1.5a5 5 0 0 0 3 1c9.3-.5 18.3-1.8 27-4Z" style="opacity:1"/><path fill="#8d806c" d="M129.5 383.5c9 .6 18 1.6 27 3a48 48 0 0 1 13 5c-37-6.9-74.3-10.2-112-10a73 73 0 0 1 18-2c18 1 36 2.4 54 4Z" style="opacity:1"/><path fill="#d8c2a1" d="M169.5 391.5a48 48 0 0 0-13-5c5.7 0 11.4.4 17 1 4.5 1 9.1 1.3 14 1-3.1.8-6.5 1.3-10 1.5 4.7.7 9.3.7 14 0 3.7-1.4 7-3 10-5a4 4 0 0 0-1 2 28 28 0 0 1 2.5 11.5 7 7 0 0 0 2.5 4.5c-7.6-1.9-14.9-4.5-22-8a47 47 0 0 0-14-3.5Z" style="opacity:1"/><path fill="#e4d9cb" d="M-.5 388.5h26l48 10.5a192 192 0 0 1 18 6.5c-.2.6-.7 1-1.5 1a370 370 0 0 1-24-8 5 5 0 0 1-2.5 1 79 79 0 0 0-26-4.5c3.2.6 3.5 1.6 1 3a23 23 0 0 0 5 2 5 5 0 0 1-3 .5v3a556 556 0 0 1-41-8v-7Z" style="opacity:.795"/><path fill="#8a704c" d="M202.5 296.5c0-.7.3-1 1-1 3.7 3 6.7 6.7 9 11a7 7 0 0 1 2 3.5c-.7 2.5-1 5-1 7.5-3 7-5.6 14.3-7.5 22a143.9 143.9 0 0 0-1 42c1 5 2.2 10 3.5 15 3 14.7 8 28.7 15 42 .1.7 0 1.4-.5 2a36 36 0 0 0-3.5-4.5c-8.8-.8-17.5-.7-26 .5-4 0-8 .5-12 1.5-7.7 2.3-15.4 4.5-23 6.5a48.7 48.7 0 0 0-11 5c-.3-.8-1-1.2-2-1 6.2-3.6 12.5-7 19-10l24-12a35.3 35.3 0 0 0 16-11l-8-2a3 3 0 0 1 3-1v-3c-.8-1.3-3.8-1.4-9-.5a268 268 0 0 1-59 9.5c-2.4 0-4.7-.3-7-1 .7-.9 1.7-1.2 3-1 8.7.2 17.4-.3 26-1.5 16.3-3.5 32.6-6.8 49-10l-33-13.5a47 47 0 0 1 14 3.5c7.1 3.5 14.4 6.1 22 8a7 7 0 0 1-2.5-4.5c0-4-.9-8-2.5-11.5a4 4 0 0 1 1-2c-3 2-6.3 3.6-10 5a47 47 0 0 1-14 0c3.5-.2 6.9-.7 10-1.5 4 .5 7-.8 9-4a5 5 0 0 0 2.5-4c.8-7.7.6-15.4-.5-23 1.3 0 2 .7 2.5 2 .8-1.6.6-2.9-.5-4-6.8-3.9-6.6-4.6.5-2l-.5-12c-2 .9-4 1.5-6 2 0-1.1-.4-2.1-1-3 2.8.3 5.3-.4 7.5-2 1.7-4.2 3.5-8.4 5.5-12.5a73 73 0 0 1-10 2.5c-1.3.2-2.3-.1-3-1 7.3 0 12-3.3 14-10a22.5 22.5 0 0 0-13-14c0-.7.3-1 1-1a28.6 28.6 0 0 1 15 13 11 11 0 0 0 .5-8 46.4 46.4 0 0 0-8.5-11Z" style="opacity:1"/><path fill="#c7c2b0" d="m510.5 386.5 8 4c8 4.3 15.6 9.2 23 14.5 3.9 3.8 7.9 7.3 12 10.5l-12-6a57.4 57.4 0 0 1-12-8c-5.6-4.5-11.6-8.5-18-12a3 3 0 0 1-1-3Z" style="opacity:1"/><path fill="#a19680" d="M25.5 388.5a229 229 0 0 1 80 21.5 273 273 0 0 0 22 6.5c-1.3-.2-2.3.1-3 1a137.5 137.5 0 0 1-33-12 192 192 0 0 0-18-6.5l-48-10.5Z" style="opacity:1"/><path fill="#d1ba9d" d="M188.5 426.5c-.4-.7-1-1.2-2-1.5 1.8-1.4 3.8-2.6 6-3.5 1-1.6 1.2-3.3.5-5-18.8 4.7-38 6.2-57.5 4.5a12 12 0 0 1-4-2.5c20-1 39.7-4.1 59-9.5 5.2-1 8.2-.8 9 .5v3a3 3 0 0 0-3 1l8 2a35.3 35.3 0 0 1-16 11Z" style="opacity:1"/><path fill="#f2ece0" d="M529.5 401.5c3.6 3.2 7.6 5.8 12 8 4.8 4 9.8 7.8 15 11.5a133.2 133.2 0 0 1-33-5c-5-1.8-9.6-4.1-14-7-1.4-1-2-2.3-2-4l3-12.5c6.7 2.2 13 5.2 19 9Z" style="opacity:1"/><path fill="#f2ede6" d="M719.5 386.5v5c-26 7.4-52 14.5-78 21.5l-29 11a479.8 479.8 0 0 0-30 7.5c18.8 22 38.5 43.1 59 63.5 9.6 6.6 19 13.6 28 21 6.6 4.4 13.6 8 21 11 2.5 1.5 4.6 3.3 6.5 5.5 1 2.7.2 4.6-2.5 5.5a61 61 0 0 1-11 .5 6.6 6.6 0 0 1 5-3c2.4.2 4.7 0 7-.5a263 263 0 0 1-33-18 415.4 415.4 0 0 1-77.5-75.5c-5-5.4-10.6-10.4-16.5-15 23.1-1.3 44.8-7 65-17 28.6-8 57.3-15.7 86-23Z" style="opacity:.617"/><path fill="#ab8c62" d="M209.5 433.5c.4-.7 1-1.2 2-1.5-2-4.3-4.3-7.8-7-10.5 1.3-.9 2.4-1.9 3.5-3 .7-1 .5-1.6-.5-2 .6-1.5 1.4-2.8 2.5-4 3 6.8 5.7 13.6 8.5 20.5-3 .5-6 .7-9 .5Z" style="opacity:1"/><path fill="#f2ede4" d="M633.5 409.5a663 663 0 0 1-32 10.5 111.9 111.9 0 0 1-38 3c-3.8-2-7.1-4.5-10-7.5-4.1-3.2-8.1-6.7-12-10.5-7.4-5.3-15-10.2-23-14.5 9.8-2.3 19.8-3.8 30-4.5 15-.7 30-.7 45 0a7622 7622 0 0 0 82 9.5c-11 3-22 6.2-33 9.5-3.3 1-6.3 2.5-9 4.5Z" style="opacity:1"/><path fill="#f9f4f7" d="M548.5 390.5c25.4-.3 50.7.4 76 2v4h17c-.3 2.4-.3 4.5 0 6.5-4.6 0-8.7 1.2-12.5 3.5-3 0-6.2-.3-9.5-.5a9 9 0 0 0-1 3.5 4.9 4.9 0 0 1-1-4c-4.9-.3-5.2.8-1 3.5l-6.5-.5c.2 2 0 4-.5 6a420 420 0 0 0-32 3.5l-1.5 1.5a6.2 6.2 0 0 0-4.5-2.5c-3.3-.8-6.4-.6-9.5.5a5.6 5.6 0 0 0-5.5-2 6 6 0 0 0-2-5c.2-.6.5-1 1-1.5-1.5-.8-2.7-2-3.5-3.5-3.7.4-6.3-1.3-8-5-.4.5-1 .8-1.5 1-2.3-1-4.6-1.8-7-2.5-1.2-1.5-1.2-3 0-4.5 4.4-1.5 8.7-2.8 13-4Z" style="opacity:1"/><path fill="#e7d5bd" d="M91.5 405.5c10.5 5.4 21.5 9.4 33 12 2.3.7 4.6 1 7 1a12 12 0 0 0 4 2.5c19.5 1.7 38.7.2 57.5-4.5.7 1.7.5 3.4-.5 5-2.2 1-4.2 2-6 3.5 1 .3 1.6.8 2 1.5l-24 12c-1-1.2-1-2.5 0-4 4-1.9 8-4 12-6.5-17.7 0-35.4-.8-53-2-20.2-5.8-40.2-12-60-19a571 571 0 0 1-23-3.5v-3c1 .1 2 0 3-.5a23 23 0 0 1-5-2c2.5-1.4 2.2-2.4-1-3a79 79 0 0 1 26 4.5 5 5 0 0 0 2.5-1 370 370 0 0 0 24 8c.8 0 1.3-.4 1.5-1Z" style="opacity:.725"/><path fill="#88775b" d="M231.5 289.5c-2.9 4.4-5.2 9-7 14a145.6 145.6 0 0 0-10.5 97 192.4 192.4 0 0 0 33.5 69c0 .7-.3 1-1 1a214.5 214.5 0 0 1-33.5-62c-1-4-1.8-8-2.5-12-7-38.8-.2-74.8 20.5-108 .4.2.6.6.5 1Z" style="opacity:1"/><path fill="#f2e3d2" d="M488.5 320.5c1.3.3 2.3 1 3 2 3.5 10.6 6.5 21.2 9 32 1 16 1.3 32 1 48-6.3 33-22.7 60-49 81-.4-.7-1-1.2-2-1.5 3-1.1 4.6-3.3 5-6.5 4-1.7 7-4.4 9-8l7-5c-.2-.6-.5-1-1-1.5 2.1-3.6 4.4-7.1 7-10.5a3 3 0 0 1 3-1 13 13 0 0 1 1-7c1 1.1 1.8 1.1 2.5 0 1.6-2.8 2.8-5.8 3.5-9 3-1.1 3.7-3 2-5.5a63 63 0 0 0 3-10.5c-1.8-3.4-1.3-6.4 1.5-9 2-11.3 3.5-22.6 4.5-34-2.2-8.3-3.4-17-3.5-26a141 141 0 0 1-6.5-28Z" style="opacity:1"/><path fill="#e0c3a1" d="M207.5 416.5c1 .4 1.2 1 .5 2-1 1.1-2.2 2.1-3.5 3 2.7 2.7 5 6.2 7 10.5-1 .3-1.6.8-2 1.5-5.3-.2-10.7 0-16 .5l-28 6c10.9-5 21.5-10.3 32-16 3.5-2.3 6.9-4.8 10-7.5Z" style="opacity:1"/><path fill="#ada28e" d="M520.5 417.5a397 397 0 0 1 37 29c-2.7 0-5-.6-7-2 .8-.8.5-1.7-1-2.5l-22-17a146 146 0 0 0-14-7.5c-1.4-1.6-3.7-2.3-7-2v-5l14 7Z" style="opacity:1"/><path fill="#f4e9dc" d="M513.5 417.5a146 146 0 0 1 14 7.5l22 17c1.5.8 1.8 1.7 1 2.5a232 232 0 0 0-37-6 129 129 0 0 0-14-3c2-5.9 3.6-11.9 5-18h9Z" style="opacity:1"/><path fill="#d0b99c" d="M193.5 436.5c3-.2 6 0 9 .5l-3 1c2.6 1.1 5.2 2.1 8 3 4.1 5 7.1 10.4 9 16.5l-5 4-2 1c0-2.6 1-4.8 3-6.5a22.5 22.5 0 0 1-4-10.5c-6.5-2-13.1-3.3-20-4l-7 .5c-8.3 2.5-16.6 4.8-25 7a1159 1159 0 0 1-35 24L106 488.5c-.7-.7-.7-1.3 0-2 9-9.5 17.8-18.4 26.5-26.5l28-15c-.6-.5-1.3-.6-2-.5 7.6-2 15.3-4.2 23-6.5 4-1 8-1.5 12-1.5Z" style="opacity:1"/><path fill="#f2ead8" d="M513.5 439.5c17.4 1.5 34 5.7 50 12.5a68 68 0 0 1 14 9.5l-21-10.5c-16-4-32-7.6-48-11a13 13 0 0 1 5-.5Z" style="opacity:1"/><path fill="#9a9485" d="m541.5 409.5 12 6c2.9 3 6.2 5.5 10 7.5 12.8 1.2 25.5.2 38-3a663 663 0 0 0 32-10.5 164.7 164.7 0 0 1-65 17c6 4.6 11.4 9.6 16.5 15a415.4 415.4 0 0 0 77.5 75.5 263 263 0 0 0 33 18 25 25 0 0 1-7 .5 417.5 417.5 0 0 0-85-22.5 173.6 173.6 0 0 1-58-24c-10.8-9.8-21.5-19.6-32-29.5a122 122 0 0 1-12-14v-1c12.5 12 24.8 24.2 37 36.5 15.5 13 33.2 22 53 27 19.3 4.5 38.6 8.7 58 12.5 5 2.1 10.4 3.3 16 3.5a2525.5 2525.5 0 0 0-50-37.5l15 7.5c-20-20.1-39.4-40.8-58-62l-9-7c-4.5-.6-8.8-1.4-13-2.5.7.1 1.4 0 2-.5a8.8 8.8 0 0 1-4-1.5c2.7.3 5.4.4 8 .5-5.2-3.7-10.2-7.5-15-11.5Z" style="opacity:.902"/><path fill="#b7976f" d="M193.5 436.5c8.5-1.2 17.2-1.3 26-.5a36 36 0 0 1 3.5 4.5c.5-.6.6-1.3.5-2 .8 1.2 1.5 2.5 2 4a35 35 0 0 1-9 15c-1.9-6-4.9-11.6-9-16.5-2.8-.9-5.4-1.9-8-3l3-1c-3-.5-6-.7-9-.5Z" style="opacity:1"/><path fill="#e6d6bf" d="M501.5 445.5c3.7 5 7.7 9.7 12 14-1 .8-2 1-3 .5-2.6-5.8-6.6-7-12-3.5 1 2 2.3 4.4 4 7 2.4.4 3 1.4 2 3a82.8 82.8 0 0 0-15-8.5c-1-.7-1.7-1.7-2-3 2.3-4.6 5-9 8-13 .7-.7 1.3-.7 2 0a19 19 0 0 0 4 3.5Z" style="opacity:1"/><path fill="#b3916c" d="M228.5 474.5c-.4-1.7-.9-3.3-1.5-5-.7 1.3-1.3 1.3-2 0 .1-3-1-5.4-3.5-7 1.1-2 .6-2.4-1.5-1-.6-1-.5-1.8.5-2.5-.6-.5-1.3-.6-2-.5 2.4-2.4 4.4-5 6-8 .5-1 1.2-1.2 2-.5a847 847 0 0 0 13.5 19.5c.6 1 .5 1.8-.5 2.5a28.8 28.8 0 0 1-11 2.5Z" style="opacity:1"/><path fill="#f5e9dd" d="M288.5 256.5v4a67.6 67.6 0 0 0-17 6c-2 .8-3.5 2.1-4.5 4l-1-2a8.4 8.4 0 0 0-.5 4 3 3 0 0 0-3 1c-3.1 4.6-7.4 7-13 7.5-1.7 2-3 4-4 6.5a4.9 4.9 0 0 1-4 1c.4 4-.4 7.7-2.5 11-1.6-.8-2.6-.2-3 2 .6 4.2-.9 7.7-4.5 10.5 1.2 1.1 1.2 2.3 0 3.5a19.9 19.9 0 0 1-4 3.5l2 1a33.6 33.6 0 0 0-1 15.5h-3c-.1-9-3.1-10.2-9-3.5l2 5.5a9.9 9.9 0 0 0-2 5 193 193 0 0 0-1 16 260 260 0 0 0 9 58 8 8 0 0 1 4 1c4.5 5 9.2 9.8 14 14.5a20.5 20.5 0 0 0-6 15.5c2.4.2 4.8-.1 7-1 3.8 2.1 7.8 2.6 12 1.5 2.5 1.6 2.6 3.4.5 5.5-2.3-3-5.1-3.6-8.5-2 2.1 4 5.5 5.6 10 5a25 25 0 0 0 .5 7c3.2-1.2 3.3-2.7.5-4.5a18 18 0 0 0 2-10.5h5c-.2 3 .5 5.7 2 8 0 12.2 6.3 17.6 19 16a46 46 0 0 1 2 7.5 14 14 0 0 1-1 5c1.6 1 2.3 2.5 2 4.5 3.6-1 7.3-1 11-.5-.8 1-1.8 1.6-3 2 2.4.2 4.7.2 7 0 1.3 1.7 1.3 3.3 0 5h16c.1 2 .5 4 1 6-2.3.2-4.4.7-6.5 1.5l-1-1c-.6 1.9.1 3.2 2 4 5.2-3 10.2-2.6 15 1 1-.5 1.8-1.2 2.5-2 1.2 1.1 2.6 2.1 4 3 4.6.5 9 1.6 13 3.5-2.6.8-2.6 1.3 0 1.5a44 44 0 0 0 14.5-4 74.7 74.7 0 0 0 20.5 2v-4c13.3 1 25.5-2.4 36.5-10 .4.5 1 .8 1.5 1a9.9 9.9 0 0 1 9-3 3 3 0 0 1 1-3l14-5c-28 19.6-59.4 30-94 31a162 162 0 0 1-88-31.5 493 493 0 0 0-18-17.5 192.4 192.4 0 0 1-33.5-69 146 146 0 0 1 10.5-97c1 .8 2 1 3 .5a9.8 9.8 0 0 1 6-5.5 10 10 0 0 1 4-5.5l-1-1a7 7 0 0 0 2.5-4.5c1-.2 2.2-.2 3.5 0 1.6-2.2 3-4.5 4-7 2.4-3 5.4-4 9-3a10 10 0 0 0 2-6c4.4-.7 7.7-3 10-7 .6.2 1 .5 1.5 1a49 49 0 0 0 6.5-5c2-.7 4-1 6-1v-3h7Z" style="opacity:1"/><path fill="#f5ede9" d="M507.5 438.5c-.4.7-1 1.2-2 1.5a425 425 0 0 0 40 10c8.5 3 16.8 6.4 25 10 17.7 12.5 35 25.5 52 39a451.9 451.9 0 0 0 31 20 4.4 4.4 0 0 1-4 1.5c-19.4-3.8-38.7-8-58-12.5-19.8-5-37.5-14-53-27a1911.5 1911.5 0 0 0-37-36.5c-1.7-1.7-3-3.7-4-6 3.2-.2 6.5-.2 10 0Z" style="opacity:1"/><path fill="#efe8dd" d="M520.5 417.5a276 276 0 0 0 30 5c4.2 1 8.5 1.9 13 2.5l9 7c18.6 21.2 38 41.9 58 62l-15-7.5a7.5 7.5 0 0 0-6-4 466.4 466.4 0 0 0-52-36 397 397 0 0 0-37-29Z" style="opacity:1"/><path fill="#8b775b" d="M499.5 327.5c5.5 17.7 8.6 35.7 9.5 54l2.5 3-1 2a3 3 0 0 0 1 3c6.4 3.5 12.4 7.5 18 12-6-3.8-12.3-6.8-19-9l-3 12.5c0 1.7.6 3 2 4 4.4 2.9 9 5.2 14 7a133 133 0 0 0 25 4.5c1.1.8 2.4 1.3 4 1.5-.6.5-1.3.6-2 .5a272.6 272.6 0 0 1-30-5 1373 1373 0 0 0-14-7v5c3.3-.3 5.6.4 7 2h-9c-1.4 6.1-3 12.1-5 18 4.8.8 9.5 1.8 14 3h-6c-3.5-.2-6.8-.2-10 0 1 2.3 2.3 4.3 4 6v1a19 19 0 0 1-4-3.5c-.7-.7-1.3-.7-2 0-3 4-5.7 8.4-8 13 .3 1.3 1 2.3 2 3a82.8 82.8 0 0 1 15 8.5 3 3 0 0 0 2 2c0 .7-.3 1-1 1-6.3-5-13.3-8.7-21-11v3c-6 7-12 14-18.5 21-.7 2.4 0 4 2.5 5 0 .7-.3 1-1 1-2-1.4-3-.7-3 2l3 8v6c-1-1.5-1.7-3.2-2.5-5 2.8 16.3 9 31.3 18.5 45l17.5 23c.7 1 .5 1.6-.5 2l-7-9-1 1.5a370 370 0 0 1 12 24.5l-2-1a573.7 573.7 0 0 0-27.5-48 461.3 461.3 0 0 0-30.5-32c.7 0 1-.3 1-1 9.7 8.8 18.8 18.2 27.5 28l.5-1c-5.2-13-10.2-26-15-39-.9-1-1.9-1.2-3-.5l-11 8.5c.1-.9-.2-1.5-1-2a968 968 0 0 1-39 17.5 216 216 0 0 1-26 4.5l-27-.5c1-.3 1.6-.8 2-1.5 34.6-1 66-11.4 94-31 1.9-1.1 3.6-2.4 5-4 26.3-21 42.7-48 49-81a133 133 0 0 0 3.5-45c-3.8-25.4-12-49.3-24.5-71.5l.5-1.5c8 13.6 14.2 28 18.5 43Z" style="opacity:1"/><path fill="#e0cab4" d="M218.5 458.5c.7-.1 1.4 0 2 .5-1 .7-1.1 1.6-.5 2.5 2.1-1.4 2.6-1 1.5 1 2.4 1.6 3.6 4 3.5 7 .7 1.3 1.3 1.3 2 0 .6 1.7 1.1 3.3 1.5 5-6.6 1-13 2.8-19 5a9.6 9.6 0 0 1-5 2.5c-18.9 4-37.7 8.4-56.5 13.5l-2.5-.5a715.5 715.5 0 0 1 57-15 9.2 9.2 0 0 0-7-3.5c-5 .4-10 1-15 2a32.1 32.1 0 0 1-20 5l35-11.5c6-2.7 11.7-5.9 17-9.5 2.3-1 4.3-2.3 6-4Z" style="opacity:1"/><path fill="#7b603b" d="M225.5 442.5a142 142 0 0 0 62 63c.1.9-.2 1.5-1 2-3-3-6.5-4-10.5-3-3-2.3-5.6-1.7-7.5 2a22.5 22.5 0 0 0-5 12c-1-1-1.3-2.4-1-4 .5-3.8 2.1-7 5-9.5a68 68 0 0 0-15 4.5v-1l4-3c5.1-2 10.1-4.1 15-6.5-3.5.1-5.5-1.5-6-5a65 65 0 0 0-8-5.5 19.8 19.8 0 0 0-10-8 24 24 0 0 0-5 8c-7 9.3-14.6 18-23 26-.5 0-.9-.4-1-1a4.5 4.5 0 0 0 2-3l10-12c6-5 10.3-11.2 13-18.5 0-3.5-1.6-5.3-5-5.5a59 59 0 0 0-21 9 109 109 0 0 1-16 8l1-2c6.7-3.5 13.4-7.4 20-11.5-4.3.6-8.6 1.1-13 1.5 6-2.2 12.4-4 19-5 3.8-.1 7.5-1 11-2.5 1-.7 1.1-1.6.5-2.5a847 847 0 0 1-13.5-19.5c-.8-.7-1.5-.5-2 .5-1.6 3-3.6 5.6-6 8-1.7 1.7-3.7 3-6 4-.7 0-1-.3-1-1l5-4a35 35 0 0 0 9-15Z" style="opacity:1"/><path fill="#857e6d" d="M513.5 439.5v-1c12.5 1 24.8 3 37 6 2 1.4 4.3 2 7 2a466.4 466.4 0 0 1 52 36l-32-21a68 68 0 0 0-14-9.5c-16-6.8-32.6-11-50-12.5Z" style="opacity:1"/><path fill="#dcc8a8" d="M210.5 396.5c.7 4 1.6 8 2.5 12a215 215 0 0 0 33.5 62c17.2 20.1 38.5 34 64 41.5 7.9 2.6 15.9 5 24 7-1.3.5-2.6.7-4 .5a259 259 0 0 1-39-12 5.8 5.8 0 0 0-4-2 141.6 141.6 0 0 1-64-67 158 158 0 0 1-15-42c-.1-.7 0-1.4.5-2 .3 1 .8 1.6 1.5 2Z" style="opacity:1"/><path fill="#bc9c76" d="M256.5 505.5c1.4-9.2-2.6-13.9-12-14 .2-1.4 0-2.7-.5-4-.4.6-.9.9-1.5 1a24 24 0 0 1 5-8c4.2 1.6 7.6 4.2 10 8a65 65 0 0 1 8 5.5c.5 3.5 2.5 5.1 6 5-4.9 2.4-9.9 4.6-15 6.5Z" style="opacity:1"/><path fill="#c8aa8a" d="M230.5 498.5c0-.5-.4-.9-1-1l-2 2c-.4-.8-.6-1.8-.5-3-.7-.8-1.5-1-2.5-1a3 3 0 0 1 2-2c4.5-.4 5.8-2.7 4-7l-5-3c-2.6.7-5.3.7-8 0a59 59 0 0 1 21-9c3.4.2 5 2 5 5.5-2.7 7.3-7 13.5-13 18.5Z" style="opacity:.878"/><path fill="#eee0d1" d="M484.5 461.5c4.1 12 7.5 24.4 10 37l-1 2c-8.2-4.6-16.6-9-25-13-2.4-1-3.2-2.6-2.5-5 6.4-7 12.6-14 18.5-21Z" style="opacity:1"/><path fill="#eddecb" d="M209.5 462.5c-4.7 3-9.7 5.5-15 7.5A1050 1050 0 0 0 69 516.5l-1.5-.5c8.6-5.6 17-11.6 25-18 11.6-11.8 22.9-23.8 34-36 6.8-4.7 13.8-8.9 21-12.5 3.4-2.1 7.1-3.8 11-5 .7-.1 1.4 0 2 .5l-28 15c-8.7 8.1-17.5 17-26.5 26.5-.7.7-.7 1.3 0 2l15.5-15.5a1159 1159 0 0 0 35-24c8.4-2.2 16.7-4.5 25-7l7-.5c6.9.7 13.5 2 20 4 .4 3.8 1.8 7.3 4 10.5-2 1.7-3 4-3 6.5Z" style="opacity:1"/><path fill="#f2e3db" d="M185.5 453.5c4.3.2 8.3 1.4 12 3.5-2.5 2-4.1 4.4-5 7.5-5.3.6-9.6 3-13 7-5 2.5-10.2 3.2-15.5 2l-8.5 5.5c-10-1-19 1.4-27 7.5-4.9.8-9 2.8-12.5 6-1-.8-2.2-1.2-3.5-1 .3 1.8 0 3.5-1 5a57.9 57.9 0 0 1-8-4.5c2-2.3 4.3-2.8 7-1.5a8 8 0 0 0 3-8c3.4-.9 6.7-2 10-3.5l-1-1c2.4-3 4.9-5.8 7.5-8.5l1 1c3.6-1 6.8-2.9 9.5-5.5l5-1-1-1a12 12 0 0 0 8.5-3.5c1 1 2.2 1.2 3.5.5 2.9-.8 5.4-2.3 7.5-4.5 1.2.6 2.6 1 4 1 6-.9 11.8-1.9 17.5-3Z" style="opacity:1"/><path fill="#a9987f" d="M247.5 469.5a493 493 0 0 1 18 17.5 162 162 0 0 0 88 31.5c-.4.7-1 1.2-2 1.5l27 .5a161 161 0 0 1-38 1.5c-3.6-.3-7-1.1-10-2.5 1.4.2 2.7 0 4-.5-8.1-2-16.1-4.4-24-7a131.8 131.8 0 0 1-64-41.5c.7 0 1-.3 1-1Z" style="opacity:1"/><path fill="#f0e5db" d="M505.5 469.5a338.3 338.3 0 0 1 56.5 63c16 18.5 31.9 37.1 47.5 56-.5 1-1.2 1.2-2 .5a723.4 723.4 0 0 0-59-52 5 5 0 0 0-3-.5c-2.4-2.7-5-5.2-8-7.5L497 502.5c-2.4-13.6-6-27-10.5-40-.5-.8-1.1-1.1-2-1v-3c7.7 2.3 14.7 6 21 11Z" style="opacity:1"/><path fill="#d9d5c4" d="M507.5 438.5h6v1a13 13 0 0 0-5 .5c16 3.4 32 7 48 11l21 10.5 32 21c2.8.4 4.8 1.7 6 4 16.8 12.3 33.4 24.8 50 37.5-5.6-.2-11-1.4-16-3.5 1.6.2 3-.3 4-1.5a451.9 451.9 0 0 1-31-20c-17-13.5-34.3-26.5-52-39-8.2-3.6-16.5-7-25-10a425 425 0 0 1-40-10c1-.3 1.6-.8 2-1.5Z" style="opacity:1"/><path fill="#a08257" d="M287.5 505.5c1.7.2 3 .8 4 2-1.8.1-2.2.8-1 2l8 3.5c-2 .6-2.3 1.6-1 3 2.6 0 4.6.8 6 2.5a9.7 9.7 0 0 0-7-.5c-1.6 1-3.2 2-5 2.5.2-1.7-.5-2.7-2-3 1.6-4 1-4.6-2-2l-14-3.5a8.5 8.5 0 0 0-5-5.5c2-3.7 4.4-4.3 7.5-2 4-1 7.5 0 10.5 3 .8-.5 1.1-1.1 1-2Z" style="opacity:1"/><path fill="#b99f81" d="M444.5 505.5c-1.3 0-2 .7-2.5 2-1.1 14-1.8 28-2 42-2.9-10-4.7-20.4-5.5-31-1-1-2.1-1.7-3.5-2a95 95 0 0 0-7.5 2c-3-1.3-5.3-.7-7 2-2.5-1.7-3.2-3.8-2-6.5 9-2.9 17.4-6.7 25.5-11.5 1.7.8 3.2 1.8 4.5 3Z" style="opacity:1"/><path fill="#e8e0d9" d="M513.5 459.5c10.5 9.9 21.2 19.7 32 29.5a173.6 173.6 0 0 0 58 24c29.3 4.5 57.6 12 85 22.5a6.6 6.6 0 0 0-5 3c-31-6-62-12.2-93-18.5-12.6-4-25-8.3-37-13 4.5 8.2 9.7 16 15.5 23.5l71 82c.5 4.7-1.7 7-6.5 7-6-1.2-11-3.8-15-8l-4-7c-3 .3-4.8-1-5-4-1.8.1-3.4-.2-5-1a35.2 35.2 0 0 0-17-14 25.9 25.9 0 0 1-3-5 27.3 27.3 0 0 1-10-9.5c-3.4-2.3-7-3.8-11-4.5a10 10 0 0 0-5-8.5 17.3 17.3 0 0 0-8-4.5 18.7 18.7 0 0 0-5.5-7l-1 2c-1.8-4.4-5-7-9.5-8a3 3 0 0 0-1-3 14 14 0 0 1-6-4.5l-16-8-2-3-7-3.5a17 17 0 0 0-1.5-7 5 5 0 0 0-.5 3c-.8-2.2-1.4-4.5-2-7l1-1 46 30c22.6 19.3 45 39 67 59 7.4 6 14.8 12.7 22 20.5 1 .7 2 .7 3 0L618 596.5c-18.6-23-37.6-45.6-57-68a274.4 274.4 0 0 0-54.5-60 3 3 0 0 1-2-2c1-1.6.4-2.6-2-3-1.7-2.6-3-5-4-7 5.4-3.4 9.4-2.3 12 3.5 1 .5 2 .3 3-.5Z" style="opacity:.717"/><path fill="#817560" d="M145.5 448.5c1-.2 1.7.2 2 1-7.2 3.6-14.2 7.8-21 12.5a1364.8 1364.8 0 0 1-34 36c-8 6.4-16.4 12.4-25 18l1.5.5A1050 1050 0 0 1 194.5 470c5.3-2 10.3-4.5 15-7.5l2-1c0 .7.3 1 1 1-5.3 3.6-11 6.8-17 9.5l-35 11.5a1765 1765 0 0 0-83 30.5l9 1c-9.2 1.1-18.2 3.1-27 6-12.9 5.6-26 10.5-39.5 14.5l-1.5-1c13.1-4.5 26.1-9.4 39-14.5a222.2 222.2 0 0 0 65-57c7-5.9 14.7-10.7 23-14.5Z" style="opacity:.988"/><path fill="#ddc8b2" d="M445.5 504.5a7 7 0 0 1-1-4l11-8.5c1.1-.7 2.1-.6 3 .5 4.8 13 9.8 26 15 39l-.5 1a363.5 363.5 0 0 0-27.5-28Z" style="opacity:1"/><path fill="#ece0d1" d="M164.5 434.5c-1 1.5-1 2.8 0 4-6.5 3-12.8 6.4-19 10-8.3 3.8-16 8.6-23 14.5a222.2 222.2 0 0 1-65 57c-12.9 5.1-25.9 10-39 14.5l1.5 1c13.5-4 26.6-8.9 39.5-14.5 8.8-2.9 17.8-4.9 27-6l-9-1c27.6-11 55.2-21 83-30.5 7.1.6 13.8-1.1 20-5 5-1 10-1.6 15-2a9 9 0 0 1 7 3.5 715.5 715.5 0 0 0-57 15l2.5.5c18.8-5 37.6-9.6 56.5-13.5 2-.4 3.7-1.2 5-2.5 4.4-.4 8.7-.9 13-1.5-6.6 4.1-13.3 8-20 11.5a403.5 403.5 0 0 1-39 16.5 396.5 396.5 0 0 1-34 5c-13.4.1-26.7 1.1-40 3 17.7-.3 35.3-1 53-2 15.2-.2 29.5-3.5 43-10a368 368 0 0 0 16-10.5 109 109 0 0 0 16-8c2.7.7 5.4.7 8 0l5 3c1.8 4.3.5 6.6-4 7-1-.7-2.1-1-3.5-1-9 .6-17.6 3.1-25.5 7.5a99.4 99.4 0 0 1-35 16c-30 2.6-60 4.9-90 7-15 4-29.7 9-44 15a15 15 0 0 1-10-1c-1.5-2.9-.9-5.2 2-7a408.2 408.2 0 0 0 47-20c6.4-5.4 13-10.4 20-15l32-35c13.8-10.6 28.8-19 45-25.5Z" style="opacity:.546"/><path fill="#a3967f" d="m202.5 489.5-1 2a368 368 0 0 1-16 10.5 100.3 100.3 0 0 1-43 10c-17.7 1-35.3 1.7-53 2 13.3-1.9 26.6-2.9 40-3 11.4-1.2 22.7-2.8 34-5a403.5 403.5 0 0 0 39-16.5Z" style="opacity:.992"/><path fill="#f4ebe7" d="M502.5 563.5a19.6 19.6 0 0 0-6-6 417 417 0 0 0-14.5-21c-5-9.3-9-19-12-29l-2.5-3v-6c1.2-.2 2.2-.9 3-2a54.5 54.5 0 0 0 19 16l3.5 11c1 .8 2.2 1.2 3.5 1-.7 5.2.4 9.9 3.5 14 .4 4.6 1.6 8.9 3.5 13-.4.8-.8 1.6-1 2.5 2 2.7 3 5.5 3.5 8.5l-1-1a7 7 0 0 1-2.5 2Z" style="opacity:1"/><path fill="#e7cfba" d="m256.5 505.5-4 3a184 184 0 0 0-35 20c.2-2.3 1.3-4 3.5-5 .7-1.1.6-2.1-.5-3-1.2.3-1.2.8 0 1.5h-4a34 34 0 0 1-9 7.5l-2-2 14-13c8.4-8 16-16.7 23-26 .6-.1 1.1-.4 1.5-1 .5 1.3.7 2.6.5 4 9.4.1 13.4 4.8 12 14Z" style="opacity:1"/><path fill="#e2d2bf" d="M444.5 505.5a461.3 461.3 0 0 1 30.5 32c10 15.6 19.1 31.6 27.5 48a78 78 0 0 0 5 12c-.7.4-1.2 1-1.5 2-.7-3.3-2.4-6-5-8-.6-1.4-.4-2.7.5-4-3-2.4-5-6-6-11a7.3 7.3 0 0 1-4-4 62.8 62.8 0 0 0-6-12 12.2 12.2 0 0 1-6-8 7 7 0 0 1-6-6l-4-3c-3.7-5.2-7.2-10.5-10.5-16a13 13 0 0 1-6.5-6.5c-1.6-.5-3 0-4 1.5a13.3 13.3 0 0 1-5.5-5c-1.4 12-2 24-1.5 36-8.8-10.3-17.1-21-25-32v-1c1.7-2.7 4-3.3 7-2a95 95 0 0 1 7.5-2c1.4.3 2.5 1 3.5 2 .8 10.6 2.6 21 5.5 31 .2-14 .9-28 2-42 .4-1.3 1.3-2 2.5-2Z" style="opacity:1"/><path fill="#785e3e" d="M444.5 500.5a7 7 0 0 0 1 4c0 .7-.3 1-1 1a22.4 22.4 0 0 0-4.5-3c-8 4.8-16.6 8.6-25.5 11.5-1.2 2.7-.5 4.8 2 6.5v1h-1a32.6 32.6 0 0 1-4-4.5c-1.1-.7-2.1-.6-3 .5 1 3.6 1.3 7.3 1 11 .3 1.6 0 3-1 4-.4-5-1-10-2-15a85.5 85.5 0 0 0-15 5c5.6 6.6 9.6 14 12 22 4.8 18 6.2 36.4 4 55-.2 2.7.5 5 2 7-.3 1.3-1 2.3-2 3 0 8-1.3 15.7-4 23a472 472 0 0 0 3-25.5c0-2-.7-3.5-2-4.5l-3-8c0-.4.1-.8.5-1 1.3.7 2.3 1.7 3 3 .5-1.6.7-3.3.5-5a97.5 97.5 0 0 0-11.5-63 11.5 11.5 0 0 0-4.5-3.5c-7 .2-14 .7-21 1.5a12 12 0 0 0 3 10 308 308 0 0 0 12.5 19c1 1.5 1.5 3.2 1.5 5a441.1 441.1 0 0 1-16.5-24c-.7 1-.7 2 0 3 2.1 3.2 4 6.6 5.5 10-3.7-3.7-6.7-8-9-13a6.6 6.6 0 0 0-3 5c-.8-.3-1.2-1-1-2 1.6-4.3 3-8.6 4-13h-19c-.7 5.3-1 10.6-1 16-.8 3.3-1.2 6.6-1 10-.8 2.5-1.3 5.1-1.5 8-.5-2.6-.7-5.3-.5-8 .7-8.6 1-17.3 1-26-5.2.1-9.5 2.1-13 6-5 4.6-9 10-12 16a248 248 0 0 0-12.5 25c-.5 4.7-.7 9.3-.5 14 .3 2.6 0 4.9-1 7-.8-4.3-1.1-8.6-1-13v-63a7.5 7.5 0 0 0-6-2.5c-1.3-1.4-1-2.4 1-3l-8-3.5c-1.2-1.2-.8-1.9 1-2 12.6 5 25.6 9 39 12 3 1.4 6.4 2.2 10 2.5 12.8 1 25.4.5 38-1.5a216 216 0 0 0 26-4.5 946.2 946.2 0 0 0 39-17.5c.8.5 1.1 1.1 1 2Z" style="opacity:1"/><path fill="#d4baa0" d="M268.5 506.5c2.5 1 4.1 2.9 5 5.5l14 3.5c3-2.6 3.6-2 2 2-2.6 4.6-6 8.6-10 12a5 5 0 0 0-2.5-5c-.6 1-.5 1.8.5 2.5-2.2.7-3.9 0-5-2l-5-1a6.9 6.9 0 0 0-4-3.5v-2a23 23 0 0 1 5-12Z" style="opacity:1"/><path fill="#968f84" d="M506.5 468.5a274.4 274.4 0 0 1 54.5 60c19.4 22.4 38.4 45 57 68l19.5 19.5c-1 .7-2 .7-3 0a201.8 201.8 0 0 0-22-20.5 2882 2882 0 0 0-67-59c1-.1 2 0 3 .5a723.4 723.4 0 0 1 59 52c.8.7 1.5.5 2-.5a2984.7 2984.7 0 0 0-47.5-56 338.3 338.3 0 0 0-56.5-63c.7 0 1-.3 1-1Z" style="opacity:.918"/><path fill="#c2a486" d="M322.5 537.5c.1-1.9-.4-2.2-1.5-1-1-2.1-2.4-3-4.5-2.5 1.3 1.6 1.2 3.1-.5 4.5-.6-1-.5-1.8.5-2.5-2.3-2-5-3.6-8-4.5-.8-1.6-1.3-3.2-1.5-5-.2 7.8-.7 15.5-1.5 23-.2-8.7 0-17.3.5-26 .2-1.8.7-3.4 1.5-5 8.6 3 17.2 5.8 26 8-3.9 3.4-7.6 7.1-11 11Z" style="opacity:1"/><path fill="#bba281" d="M405.5 591.5c-2-11.9-3.5-23.9-4.5-36-1.6-6.9-3.8-13.5-6.5-20-7.6-1.5-15.3-2.1-23-2v3a12.2 12.2 0 0 1-3-10c7-.8 14-1.3 21-1.5 1.8.8 3.3 2 4.5 3.5a97.5 97.5 0 0 1 11.5 63Z" style="opacity:1"/><path fill="#f4eae9" d="m467.5 575.5-6-3-16-15a4 4 0 0 1 2-3.5c-2-3.5-3.6-7.2-5-11 .7-6.8 1-13.6 1-20.5 8.3 2 14.3 7.3 18 16a8 8 0 0 0 4 1c0 2.9.9 5.6 2.5 8a21 21 0 0 1 6.5 7.5l5 2.5c1.2 1.2 1.2 2.3 0 3.5 1 .6 1.8.5 2.5-.5 1 3.9 3 7.2 6 10a75 75 0 0 1 6.5 20.5 9 9 0 0 1-7-.5c-.8-4-1.8-8-3-12a8 8 0 0 0 0-7 41 41 0 0 0-5 7 9.1 9.1 0 0 0-5.5-3c-2.1.9-4.3.9-6.5 0Z" style="opacity:1"/><path fill="#e2ceb7" d="M262.5 514.5c-.8 1.8-1.3 3.8-1.5 6l-1 28c-3.4 2.9-6.9 5.5-10.5 8a5.5 5.5 0 0 0-3-1.5 11 11 0 0 0 5.5-5.5c.4-7.4.6-14.5.5-21.5a64.5 64.5 0 0 0-4-6.5 36.5 36.5 0 0 1-13 2.5c-1.2.5-2 1.3-2.5 2.5-1.8-1.3-2.3-1.2-1.5.5-5.4 2.8-11 6.3-17 10.5l-1-1a194.1 194.1 0 0 1 34-22c-.1-.6-.5-1-1-1l6-4a68 68 0 0 1 15-4.5 14.8 14.8 0 0 0-5 9.5Z" style="opacity:1"/><path fill="#c7ab8e" d="M361.5 539.5c-1 2.5-2.4 4.8-4 7 0-.4-.1-.8-.5-1-.4 1.2-1 2.2-2 3a8 8 0 0 1 1.5-6l-1-2c-.8.9-1.3 1.9-1.5 3-2-7.4-4-7.1-6 1a7 7 0 0 0-2.5-2c0-5.4.3-10.7 1-16h19c-1 4.4-2.4 8.7-4 13Z" style="opacity:1"/><path fill="#cab197" d="M408.5 532.5v2c-.8 3.8-1.3 7.8-1.5 12l-3-6a8.4 8.4 0 0 0-.5 4c-2.4-8-6.4-15.4-12-22 4.8-2.1 9.8-3.8 15-5 1 5 1.6 10 2 15Z" style="opacity:1"/><path fill="#d2b99f" d="M303.5 518.5v58h-1c.2-10 0-20-.5-30l-1 1a5 5 0 0 1-.5-3h-4l-4-15c-1.7.1-3.2.8-4.5 2a4 4 0 0 1-2-1l-1 4c-.4-.6-.9-.9-1.5-1 .9-5.5 3.6-9.8 8-13 1.8-.6 3.4-1.4 5-2.5a10 10 0 0 1 7 .5Z" style="opacity:1"/><path fill="#dfd1bc" d="M415.5 521.5c7.2 11.4 15 22.4 23.5 33 .7 8.3.7 16.7 0 25a837.2 837.2 0 0 0-7 49c-1-2.3-1.8-4.6-2.5-7a8.8 8.8 0 0 0 0-8 9 9 0 0 0 2.5-5c.6 2.1 1 2.3 1.5.5a26.3 26.3 0 0 1-3-7c.8-1.5 1.6-1.7 2.5-.5a64 64 0 0 0 1-37 43.3 43.3 0 0 0-6.5-10.5c.2-.9.6-1.7 1-2.5a23.4 23.4 0 0 1-3-7 10.8 10.8 0 0 1-5-11c-3-.2-4.3-2-4-5h-3c.2 2.7 0 5.4-.5 8-.8-5.3-1.3-5.3-1.5 0l-2-8c.3-3.7 0-7.4-1-11 .9-1 1.9-1.2 3-.5 1.2 1.7 2.6 3.2 4 4.5Z" style="opacity:1"/><path fill="#ba9e80" d="M342.5 552.5h-1c.7-4-.5-7.4-3.5-10a28 28 0 0 0-1.5-5 30.8 30.8 0 0 1-6-5c3.5-3.9 7.8-5.9 13-6 0 8.7-.3 17.4-1 26Z" style="opacity:1"/><path fill="#e3d6c5" d="M467.5 488.5c7.4 4.6 15 8.8 23 12.5a16 16 0 0 1 6 5.5 570 570 0 0 0 20 73.5c-.6 1.6-1.4 1.4-2.5-.5a259 259 0 0 1-11.5-16 7 7 0 0 0 2.5-2l1 1a19 19 0 0 0-3.5-8.5c.2-.9.6-1.7 1-2.5-2-4.1-3.1-8.4-3.5-13-3-4.1-4.2-8.8-3.5-14-1.3.2-2.5-.2-3.5-1l-3.5-11a54.5 54.5 0 0 1-19-16 4.5 4.5 0 0 1-3 2l-3-8c0-2.7 1-3.4 3-2Z" style="opacity:.998"/><path fill="#f1e3da" d="M246.5 513.5c.5 0 .9.4 1 1a194.1 194.1 0 0 0-34 22l1 1c6-4.2 11.6-7.7 17-10.5-.8-1.7-.3-1.8 1.5-.5.5-1.2 1.3-2 2.5-2.5 4.5 0 8.9-.9 13-2.5a54 54 0 0 1 4 6.5c0 7 0 14.1-.5 21.5a11 11 0 0 1-5.5 5.5c1.2.2 2.2.7 3 1.5a644.1 644.1 0 0 1-52 27.5 372 372 0 0 0-47 34c-.7.7-1.3.7-2 0a574 574 0 0 0 38.5-56.5c15.8-21 35.7-37 59.5-48Z" style="opacity:1"/><path fill="#e2cdb5" d="M322.5 537.5a226.7 226.7 0 0 0-16 31c-1-6.3-1.3-12.6-1-19 .8-7.5 1.3-15.2 1.5-23 .2 1.8.7 3.4 1.5 5 3 1 5.7 2.4 8 4.5-1 .7-1.1 1.6-.5 2.5 1.7-1.4 1.8-2.9.5-4.5 2-.4 3.6.4 4.5 2.5 1.1-1.2 1.6-.9 1.5 1Z" style="opacity:1"/><path fill="#e9d7c8" d="M405.5 591.5a491.6 491.6 0 0 1-15.5-26 12 12 0 0 0-4.5-5c0-1.8-.5-3.5-1.5-5a308 308 0 0 1-12.5-19v-3c7.7-.1 15.4.5 23 2 2.7 6.5 4.9 13.1 6.5 20 1 12.1 2.5 24.1 4.5 36Z" style="opacity:1"/><path fill="#efe8e3" d="M618.5 611.5c-1.7-.4-3.3-.9-5-1.5a761.2 761.2 0 0 1-72-59 449.9 449.9 0 0 1-28.5-19.5 24 24 0 0 0 0 10c5 17.1 10.3 34.1 16 51 9 20.2 18.3 40.2 28 60a467 467 0 0 1 21.5 35 6.9 6.9 0 0 1-2 3c-1.3-.3-2.3-1-3-2-7-10.5-13.8-21.2-20.5-32-1-2.7-2.2-5.4-3.5-8 0-1.5-.6-2.5-2-3a976.9 976.9 0 0 1-29.5-66 551 551 0 0 1-17.5-65c-.1-1 0-2 .5-3a17 17 0 0 1 1.5 7l7 3.5 2 3 16 8a14 14 0 0 0 6 4.5 3 3 0 0 1 1 3c4.5 1 7.7 3.6 9.5 8l1-2c2.4 1.9 4.2 4.2 5.5 7 3.1.8 5.8 2.3 8 4.5a10 10 0 0 1 5 8.5c4 .8 7.6 2.3 11 4.5 2.5 4 5.9 7.2 10 9.5.8 1.8 1.8 3.5 3 5a35.2 35.2 0 0 1 17 14c1.6.8 3.2 1.1 5 1 .2 3 2 4.3 5 4l4 7Z" style="opacity:.365"/><path fill="#867865" d="m409.5 528.5 2 8c3.3 24.2 7.6 48.2 13 72a314 314 0 0 1-7.5-24l-8.5-50v-2c1-1 1.3-2.4 1-4Z" style="opacity:1"/><path fill="#ece1da" d="M314.5 638.5c-3.8-17-6.8-34-9-51-.2-4.7 0-9.3.5-14a248 248 0 0 1 12.5-25c1.3 0 2-.7 2.5-2 .2 1.7.2 3.4 0 5a23 23 0 0 0 5.5-8c1.3.6 2.1 1.6 2.5 3 1.3-3.3 3.5-4 6.5-2 0 28.7-4.5 56.7-13.5 84a119 119 0 0 0-6 14 8.8 8.8 0 0 0-1.5-4Z" style="opacity:1"/><path fill="#ac9b80" d="M385.5 560.5a12 12 0 0 1 4.5 5c5 8.9 10.1 17.6 15.5 26a13 13 0 0 1-.5 5 6.5 6.5 0 0 0-3-3c-.4.2-.6.6-.5 1a865.5 865.5 0 0 0-27-45 73.6 73.6 0 0 0-5.5-10c-.7-1-.7-2 0-3 5.3 8.2 10.8 16.2 16.5 24Z" style="opacity:1"/><path fill="#efe3da" d="M429.5 621.5a39 39 0 0 0-5-13 854.4 854.4 0 0 1-13-72c.2-5.3.7-5.3 1.5 0 .5-2.6.7-5.3.5-8h3c-.3 3 1 4.8 4 5-.6 4.8 1.1 8.4 5 11 .6 2.5 1.6 4.9 3 7-.4.8-.8 1.6-1 2.5 2.7 3.2 4.8 6.7 6.5 10.5a64 64 0 0 1-1 37c-1-1.2-1.7-1-2.5.5.6 2.5 1.6 4.8 3 7-.4 1.8-1 1.6-1.5-.5a9 9 0 0 1-2.5 5 8.8 8.8 0 0 1 0 8Z" style="opacity:.999"/><path fill="#7e705c" d="M252.5 508.5v1l-6 4c-23.8 11-43.7 27-59.5 48a574 574 0 0 1-38.5 56.5c.7.7 1.3.7 2 0a372 372 0 0 1 47-34 644.1 644.1 0 0 0 52-27.5c3.6-2.5 7.1-5.1 10.5-8l1-28c.2-2.2.7-4.2 1.5-6-.3 1.6 0 3 1 4v2a124 124 0 0 0-.5 26c6.1-5.1 11.6-10.8 16.5-17 4-3.4 7.4-7.4 10-12 1.5.3 2.2 1.3 2 3a19.2 19.2 0 0 0-8 13 98.6 98.6 0 0 0-6.5 12 1802 1802 0 0 1-18 45 1318 1318 0 0 0-22 95c4.9-12.6 10.6-25 17-37 3.1-6 7-11.3 11.5-16-3 7-6.9 13.7-11.5 20a434 434 0 0 1-30.5 61l-1-1.5a216 216 0 0 1 6-12.5l2.5-3 4-14c7-32 14.2-64 21.5-96a121 121 0 0 0 3.5-36c-5 4.8-10.6 9-16.5 12.5a424.4 424.4 0 0 0-76 43c-7.6 6-15 12.3-22 19l-8 5-23.5 27.5c-.7-1-.7-2 0-3a238 238 0 0 0 27-36l22-46a116.1 116.1 0 0 1 26.5-35.5l31-26.5a4.5 4.5 0 0 1-2 3c.1.6.5 1 1 1l-14 13c-10 7.5-19.1 15.8-27.5 25-4.3 6.2-8.3 12.5-12 19a941 941 0 0 1-25 52 96 96 0 0 1 11-12 979 979 0 0 1 42-62c7.1-8 15-15 23.5-21a184 184 0 0 1 35-20Z" style="opacity:1"/><path fill="#ebdccc" d="M217.5 528.5c-8.6 6-16.4 13-23.5 21a979 979 0 0 0-42 62 96 96 0 0 0-11 12 941 941 0 0 0 25-52c3.7-6.5 7.7-12.8 12-19 8.4-9.2 17.5-17.5 27.5-25l2 2a34 34 0 0 0 9-7.5h4c-1.2-.7-1.2-1.2 0-1.5 1 .9 1.2 1.9.5 3a5.6 5.6 0 0 0-3.5 5Z" style="opacity:1"/><path fill="#ede0cd" d="M281.5 529.5c1 .8 1.2 1.8.5 3a140 140 0 0 0-10 20l-12 32 3.5-36a121 121 0 0 0 18-19Z" style="opacity:1"/><path fill="#ead8c7" d="M263.5 520.5c1.8.6 3.1 1.8 4 3.5l5 1c1.1 2 2.8 2.7 5 2-1-.7-1.1-1.6-.5-2.5a4.9 4.9 0 0 1 2.5 5 115.3 115.3 0 0 1-16.5 17 124 124 0 0 1 .5-26Z" style="opacity:1"/><path fill="#eee4dc" d="M507.5 597.5c6.7 17 15.7 32.7 27 47-.5 1-1.2 1.2-2 .5-12.2-14.2-24-28.7-35.5-43.5a362.4 362.4 0 0 0-29.5-26c2.2.9 4.4.9 6.5 0 2.2.4 4 1.4 5.5 3a41 41 0 0 1 5-7 8 8 0 0 1 0 7c1.2 4 2.2 8 3 12a8.7 8.7 0 0 0 7 .5 75 75 0 0 0-6.5-20.5c-3-2.8-5-6.1-6-10-.7 1-1.6 1.1-2.5.5 1.2-1.2 1.2-2.3 0-3.5l-5-2.5a21 21 0 0 0-6.5-7.5 14.8 14.8 0 0 1-2.5-8 8 8 0 0 1-4-1c-3.7-8.7-9.7-14-18-16 0 6.9-.3 13.7-1 20.5 1.4 3.8 3 7.5 5 11a4 4 0 0 0-2 3.5 11 11 0 0 1-4-4c-.4-12 0-24 1.5-36 1.4 2.2 3.2 3.9 5.5 5 1-1.5 2.4-2 4-1.5a13 13 0 0 0 6.5 6.5c3.3 5.5 6.8 10.8 10.5 16l4 3a7 7 0 0 0 6 6c.8 3.5 2.8 6.2 6 8 2.4 3.8 4.4 7.8 6 12a7.3 7.3 0 0 0 4 4c1 5 3 8.6 6 11a3.8 3.8 0 0 0-.5 4c2.6 2 4.3 4.7 5 8 .3-1 .8-1.6 1.5-2Z" style="opacity:1"/><path fill="#dcc8af" d="M374.5 549.5a865.5 865.5 0 0 1 27 45l3 8c-3 22.3-8 44-15 65 .2-2.4-.1-4.8-1-7 2-6.5 3.3-13.2 4-20 1.6-2 2.6-4.3 3-7-.4-.8-.8-1.6-1-2.5 2.1-8.4 2.3-17 .5-25.5-.8-3-2.1-5.6-4-8l-1-10a82.6 82.6 0 0 0-12.5-16c-4.6-10-10-19.2-16-28l1-2a6.6 6.6 0 0 1 3-5c2.3 5 5.3 9.3 9 13Z" style="opacity:1"/><path fill="#d5c4b1" d="M330.5 532.5c1.7 1.9 3.7 3.5 6 5a28 28 0 0 1 1.5 5c3 2.6 4.2 6 3.5 10 0 17-2.6 33.7-7.5 50l-18 50c-.7-4.7-1.2-9.3-1.5-14a8.8 8.8 0 0 1 1.5 4 119 119 0 0 1 6-14c9-27.3 13.5-55.3 13.5-84-3-2-5.2-1.3-6.5 2a4.3 4.3 0 0 0-2.5-3c-1.2 3-3 5.7-5.5 8 .2-1.6.2-3.3 0-5-.4 1.3-1.3 2-2.5 2 3-6 7-11.4 12-16Z" style="opacity:.996"/><path fill="#ebddd1" d="M302.5 576.5a41 41 0 0 1-3.5 8c-8.8 13-18.2 25.7-28 38-2.1 3.2-4 6.6-5.5 10-4.5 4.7-8.4 10-11.5 16-6.4 12-12.1 24.4-17 37a1318 1318 0 0 1 22-95 1802 1802 0 0 0 18-45c2-4.2 4.1-8.2 6.5-12 .6.1 1.1.4 1.5 1l1-4a4 4 0 0 0 2 1 7.2 7.2 0 0 1 4.5-2l4 15h4c-.1 1 0 2 .5 3l1-1c.5 10 .7 20 .5 30Z" style="opacity:1"/><path fill="#f1e3de" d="M280.5 547.5c4 .3 5 2.3 3 6 1.3-.4 2.4.3 3.5 2a8 8 0 0 1-1.5 7c.4 2.2 1.2 4.2 2.5 6a34 34 0 0 0 1.5-8h3c.2 5 0 10-.5 15l-1-1a7.3 7.3 0 0 1-6.5 2v8h4l-4 9c-2.3 0-4.3.8-6 2.5l3 1a4.9 4.9 0 0 1-5 2.5c.2 1.4 0 2.7-.5 4-.7 1.3-1.3 1.3-2 0-.7 1.3-.5 2.5.5 3.5l-4 6.5 1 2a28 28 0 0 0-6 2c.6 1.6 1.2 3 2 4.5a4.2 4.2 0 0 1-3.5 1.5c-1 3.1-2.4 6.1-4 9l-1-2c-4.2 2.7-6 1.4-5.5-4a286 286 0 0 0 3.5-14c.6-1.1 1.5-2.1 2.5-3-.5-1-.8-2-1-3a30 30 0 0 0 3-11 137 137 0 0 0 7.5-20c.7 1.2 1.2 1.2 1.5 0a5.4 5.4 0 0 1-.5-5l1 2c.7-2.3 1.2-4.6 1.5-7 1.3.2 2.5-.2 3.5-1 .8-5.9 2.3-11.6 4.5-17Z" style="opacity:1"/><path fill="#eee3db" d="m500.5 569.5 19.5 31a411.1 411.1 0 0 0 16 31c.7 1.7.5 3.4-.5 5 .8.4 1.8.6 3 .5 3.6 7.4 7.6 14.5 12 21.5-.1.6-.5 1-1 1a234.3 234.3 0 0 1-45-73c-3.7-8.3-7.7-16.4-12-24.5l1-1.5 7 9Z" style="opacity:1"/><path fill="#847a68" d="M484.5 461.5c.9-.1 1.5.2 2 1 4.6 13 8 26.4 10.5 40l40.5 26.5c3 2.3 5.6 4.8 8 7.5l-46-30-1 1c.6 2.5 1.2 4.8 2 7a551 551 0 0 0 17.5 65c9 22.4 18.9 44.4 29.5 66 0 .5-.4.9-1 1-8.7-17.8-17.2-35.8-25.5-54-8.4-11.6-16.6-23.2-24.5-35 2.4 1.6 4.4 3.6 6 6a259 259 0 0 0 11.5 16c1 1.9 1.9 2 2.5.5a570 570 0 0 1-20-73.5 16 16 0 0 0-6-5.5c-8-3.7-15.6-7.9-23-12.5.7 0 1-.3 1-1 8.4 4 16.8 8.4 25 13l1-2c-2.5-12.6-5.9-25-10-37Z" style="opacity:.827"/><path fill="#e3d6c7" d="m408.5 534.5 8.5 50a314 314 0 0 0 7.5 24 1495 1495 0 0 0 13.5 48 371.9 371.9 0 0 1-28.5-50 10 10 0 0 1-2-7c2.2-18.6.8-37-4-55-.2-1.4 0-2.7.5-4l3 6c.2-4.2.7-8.2 1.5-12Z" style="opacity:1"/><path fill="#e8dbce" d="M361.5 543.5c6 8.8 11.4 18 16 28a84 84 0 0 1 12.5 16l1 10c1.9 2.4 3.2 5 4 8 1.8 8.6 1.6 17-.5 25.5.2.9.6 1.7 1 2.5-.4 2.7-1.4 5-3 7-.7 6.8-2 13.5-4 20 .9 2.2 1.2 4.6 1 7-1.2 4.2-2.5 8.2-4 12-.8-7-1.3-14-1.5-21-.4 5-1.3 5.2-2.5.5.2-3.3 1-3.8 2.5-1.5 1.5-1.7 2.5-3.7 3-6 .7-6.9 1.5-13.7 2.5-20.5a50.3 50.3 0 0 1-1-18.5c-1.2-6.6-2.2-13.3-3-20a12 12 0 0 0-9-1l-3-5c.7-1.6 1-3 1-4.5-2.7-.7-2.7-1.3 0-2a17.9 17.9 0 0 1-3.5-10.5l-2 2a4.8 4.8 0 0 1-2.5-5c-1.7.3-3.4.5-5 .5-.8-1.4-.8-3 0-5-.5-1.8-1.3-2-2.5-.5a9 9 0 0 0 1.5 6.5c-.8 1.5-1.6 1.7-2.5.5.2 4-1.5 6.6-5 8 0 7.6-1 14.9-2.5 22a68 68 0 0 1 2.5-32c2.4-7.8 5.2-15.5 8.5-23Z" style="opacity:.977"/><path fill="#8e8274" d="M302.5 576.5h1v5a714.6 714.6 0 0 1-38 51c1.6-3.4 3.4-6.8 5.5-10 9.8-12.3 19.2-25 28-38a41 41 0 0 0 3.5-8Z" style="opacity:.953"/><path fill="#cdc3b4" d="m467.5 504.5 2.5 3c3 10 7 19.7 12 29 5 6.9 10 13.9 14.5 21 8 11.8 16 23.4 24.5 35 8.3 18.2 16.8 36.2 25.5 54 .6-.1 1-.5 1-1 1.4.5 2 1.5 2 3-1.1-1.4-1.8-1.2-2 .5 2.2 3.2 3.7 6.7 4.5 10.5 3 3 5 6.3 6 10-2.7-3.5-5.5-6.8-8.5-10 .5 0 .9-.4 1-1-4.4-7-8.4-14.1-12-21.5-1.2 0-2.2 0-3-.5 1-1.6 1.2-3.3.5-5a411.1 411.1 0 0 1-16-31l-19.5-31c1-.4 1.2-1 .5-2l-17.5-23a111.2 111.2 0 0 1-18.5-45c.8 1.8 1.6 3.5 2.5 5Z" style="opacity:.976"/><path fill="#7b6f5f" d="M341.5 552.5h1c-.2 2.7 0 5.4.5 8 .2-2.9.7-5.5 1.5-8-1.3 17.6-4 35-8 52-7 15.8-13.2 32.2-18.5 49-4.2 20.7-8 41.4-11.5 62a205.6 205.6 0 0 1-.5-35c2.8-12 5-24.2 6.5-36.5l-8-49.5c1-2.1 1.3-4.4 1-7 2.2 17 5.2 34 9 51 .3 4.7.8 9.3 1.5 14l18-50c5-16.3 7.4-33 7.5-50Z" style="opacity:.929"/><path fill="#9e8e78" d="M404.5 602.5c1.3 1 2 2.5 2 4.5a472 472 0 0 1-3 25.5c0 6.2-1.2 12.2-3.5 18-10.2 30.6-20 61.3-29.5 92 .8-12 1.1-24 1-36a119 119 0 0 1 1.5 15c4.5-14 8.7-28 12.5-42a360.6 360.6 0 0 0 19-77Z" style="opacity:.996"/><path fill="#eae3de" d="M341.5 611.5a81 81 0 0 0-8.5 18c-8.4 23.3-14 47.3-17 72-1 5-2.3 10-4 15-4.3 5.3-8.7 5.3-13 0-.7-20-.7-40 0-60 .4-.6.9-.9 1.5-1a536.6 536.6 0 0 0 0 60c1.6 1 2.4.4 2.5-2l1-9a94 94 0 0 0 1.5 13c.8-.5 1.1-1.1 1-2 3.5-20.6 7.3-41.3 11.5-62a475.4 475.4 0 0 1 18.5-49c0 .4.1.8.5 1 1.4-4.8 3-5 4.5-.5-1.3 2.3-1.3 4.4 0 6.5Z" style="opacity:.314"/><path fill="#eae1da" d="M373.5 586.5a40 40 0 0 0-12-9c-.8 3-1.3 6-1.5 9a25.4 25.4 0 0 0-3.5 8.5l3.5 11.5c.5 12.2 3.2 24 8 35 1.6 9.9 4 19.5 7 29 2-1.7 3.7-3.7 5-6 2.4-18.9 3-37.9 2-57-2.9-5-4.7-10.3-5.5-16 3-.8 6-.5 9 1 .8 6.7 1.8 13.4 3 20-.8 6.2-.5 12.4 1 18.5-1 6.8-1.8 13.6-2.5 20.5-.5 2.3-1.5 4.3-3 6-1.5-2.3-2.3-1.8-2.5 1.5 1.2 4.7 2 4.6 2.5-.5.2 7 .7 14 1.5 21-3.8 14-8 28-12.5 42a119 119 0 0 0-1.5-15c0-12.8-1.2-25.4-3.5-38a503 503 0 0 0-13-47 164 164 0 0 1-4.5-23 106 106 0 0 0 2.5-22c3.5-1.4 5.2-4 5-8 1 1.2 1.7 1 2.5-.5a9 9 0 0 1-1.5-6.5c1.2-1.5 2-1.3 2.5.5-.8 2-.8 3.6 0 5 1.6 0 3.3-.2 5-.5-.2 2.2.6 3.9 2.5 5l2-2c0 3.9 1.2 7.4 3.5 10.5-2.7.7-2.7 1.3 0 2 0 1.4-.3 3-1 4.5Z" style="opacity:.571"/><path fill="#817566" d="M361.5 539.5c-.2 1 .2 1.7 1 2l-1 2c-3.3 7.5-6.1 15.2-8.5 23a68 68 0 0 0-2.5 32 164 164 0 0 0 4.5 23 503 503 0 0 1 13 47c2.3 12.6 3.4 25.2 3.5 38 .1 12-.2 24-1 36l-1 4c0-19.8-.1-39.8-.5-60-1-9.6-2.8-19-5.5-28l-13.5-50c-2.5-12-2.9-24-1-36 3-8.6 5.8-17.3 8.5-26 1.6-2.2 3-4.5 4-7Z" style="opacity:.847"/><path fill="#867c6c" d="M415.5 521.5h1c7.9 11 16.2 21.7 25 32 1 1.7 2.3 3 4 4l16 15a68.5 68.5 0 0 1-19-15c-.8 8-1.3 16-1.5 24a1924 1924 0 0 0-6 35c-1 9.5-.4 18.8 2 28 4.3 13.8 9.5 27.1 15.5 40-10.6-18.6-21.8-37-33.5-55l-9.5-19c-.5-.8-1.1-1.1-2-1 1-.7 1.7-1.7 2-3 8.2 17.4 17.7 34 28.5 50a1495 1495 0 0 1-13.5-48c2.4 4 4 8.3 5 13 .7 2.4 1.5 4.7 2.5 7 1.9-16.4 4.2-32.7 7-49 .7-8.3.7-16.7 0-25a371.8 371.8 0 0 1-23.5-33Z" style="opacity:.82"/><path fill="#d6cab9" d="M313.5 654.5c1.1 2.8 1.3 5.8.5 9-2 12.5-4.4 24.8-7 37a116 116 0 0 1 6.5-46Z" style="opacity:.996"/><path fill="#e2d6c9" d="M357.5 546.5c-2.7 8.7-5.6 17.4-8.5 26-1.9 12-1.5 24 1 36l13.5 50c.1 1.9-.4 2.2-1.5 1-.1-3-1-5.6-2.5-8l-1 2.5c1.7 7.1 3.2 14.3 4.5 21.5a20 20 0 0 1-.5 10c0 1.5.6 2.5 2 3a462 462 0 0 1 0 60h-1c-.5-16.8-1.7-33.4-3.5-50a1725 1725 0 0 1-8-34 143.8 143.8 0 0 1-10.5-53c-1.3-2-1.3-4.2 0-6.5-1.6-4.5-3-4.3-4.5.5-.4-.2-.6-.6-.5-1 4-17 6.7-34.4 8-52-.2-3.4.2-6.7 1-10a7 7 0 0 1 2.5 2c2-8.1 4-8.4 6-1 .2-1.1.7-2.1 1.5-3l1 2a7.7 7.7 0 0 0-1.5 6c1-.8 1.6-1.8 2-3 .4.2.6.6.5 1Z" style="opacity:.864"/><path fill="#e6d9cd" d="M224.5 495.5c1 0 1.8.2 2.5 1 0 1.2 0 2.2.5 3l2-2c.6.1 1 .5 1 1l-10 12-31 26.5a116.1 116.1 0 0 0-26.5 35.5l-22 46a238 238 0 0 1-27 36c-.7 1-.7 2 0 3l23.5-27.5 8-5c7-6.7 14.4-13 22-19 23.7-16.9 49-31.2 76-43 6-3.6 11.4-7.7 16.5-12.5.6 12.2-.6 24.2-3.5 36a22.5 22.5 0 0 1-4.5-9c-1 20.2-5.3 39.6-13 58-1 1.3-2 1.3-3 0-1 2.8-.1 4.8 2.5 6a346.5 346.5 0 0 0-6.5 45l-3.5 13a216 216 0 0 0-6 12.5l1 1.5a434 434 0 0 0 30.5-61c4.6-6.3 8.5-13 11.5-20 13.4-16.4 26-33.4 38-51-.1 4.4.2 8.7 1 13l8 49.5a355.7 355.7 0 0 1-6.5 36.5c-.8 11.8-.7 23.5.5 35 .1.9-.2 1.5-1 2a94 94 0 0 1-1.5-13l-1 9c0 2.4-.9 3-2.5 2a536.6 536.6 0 0 1 0-60 16 16 0 0 0-1.5-17c-.2-5.2-1-10.2-2.5-15 2-7.1 2.5-14.5 1.5-22a273.3 273.3 0 0 0-54 88c-3.7 7.1-7.7 14.1-12 21-3.7 5.5-8 6.2-13 2a6.5 6.5 0 0 1 0-5 56 56 0 0 0 5-12c5-20.7 8.6-41.7 11-63 2-6.3 3.6-12.6 5-19 1.5-6.5 2.5-13.2 3-20 2.2-6.3 4.6-12.6 7-19 .7-2.7.7-5.3 0-8a830.5 830.5 0 0 1-70.5 41.5 818.9 818.9 0 0 1-38 30c-8.4 7.4-16.4 15-24 23-8.2 3-11 .5-8.5-7.5 7.4-8.4 14.4-17 21-26 10-17.5 19-35.5 27-54 8.3-15.2 18.5-29 30.5-41.5 8.7-6 16.9-12.4 24.5-19.5a51 51 0 0 1 8-9c1.8-2.6 3.3-5.2 4.5-8Z" style="opacity:.393"/><path fill="#d6c5ae" d="M256.5 586.5c-7.3 32-14.4 64-21.5 96l-4 14-2.5 3 3.5-13a356 356 0 0 1 6.5-45c-2.6-1.2-3.5-3.2-2.5-6 1 1.3 2 1.3 3 0 7.7-18.4 12-37.8 13-58 .8 3.4 2.3 6.4 4.5 9Z" style="opacity:.99"/><path fill="#898175" d="m461.5 572.5 6 3a362.4 362.4 0 0 1 29.5 26c11.5 14.8 23.3 29.3 35.5 43.5.8.7 1.5.5 2-.5a183.2 183.2 0 0 1-27-47 78 78 0 0 1-5-12l2 1a234.3 234.3 0 0 0 45 73c3 3.2 5.8 6.5 8.5 10-1-3.7-3-7-6-10-.8-3.8-2.3-7.3-4.5-10.5.2-1.7.9-1.9 2-.5 1.3 2.6 2.4 5.3 3.5 8 6.7 10.8 13.5 21.5 20.5 32 .1.7 0 1.4-.5 2a461.8 461.8 0 0 1-18-22 439.8 439.8 0 0 1-58-64 290 290 0 0 0-35.5-32Z" style="opacity:.851"/><path fill="#e2dbd5" d="M461.5 572.5a290 290 0 0 1 35.5 32 439.8 439.8 0 0 0 58 64c5.8 7.5 11.8 14.9 18 22 .5-.6.6-1.3.5-2 .7 1 1.7 1.7 3 2a10 10 0 0 1-9 1.5 58.6 58.6 0 0 1-20-15 264.4 264.4 0 0 1-71.5-72.5L455.5 584a15 15 0 0 0-9-4.5c.2 4 0 8-.5 12-2.4 6.7-4 13.7-5 21-.7 9-.7 18 0 27 8 22 17 43.7 27 65a114 114 0 0 0 6 16c0 7.3-3.5 9.4-10.5 6.5L453 716.5a502.9 502.9 0 0 1-34-57 886 886 0 0 1-8-25 1265 1265 0 0 1-22 67c-4 16.1-8.7 31.8-14.5 47h-5v-2l1-4c9.5-30.7 19.3-61.4 29.5-92a48.2 48.2 0 0 0 3.5-18c2.7-7.3 4-15 4-23 .9-.1 1.5.2 2 1l9.5 19c11.7 18 22.9 36.4 33.5 55-6-12.9-11.2-26.2-15.5-40-2.4-9.2-3-18.5-2-28a1924 1924 0 0 1 6-35c.2-8 .7-16 1.5-24a68.5 68.5 0 0 0 19 15Z" style="opacity:.967"/><path fill="#c9bcac" d="M363.5 658.5a142 142 0 0 1 5.5 28c.4 20.2.5 40.2.5 60v2h-5a462 462 0 0 0 0-60c-1.4-.5-2-1.5-2-3a20 20 0 0 0 .5-10c-1.3-7.2-2.8-14.4-4.5-21.5l1-2.5c1.6 2.4 2.4 5 2.5 8 1.1 1.2 1.6.9 1.5-1Z" style="opacity:.968"/><path fill="#807c78" d="M452.5 684.5c1.3 0 2 .7 2.5 2l14 36c.7 1.1.6 2.1-.5 3a1079 1079 0 0 1-16-41Z" style="opacity:.757"/></svg>
